<svg width="427" height="147" viewBox="0 0 427 147" fill="none" xmlns="http://www.w3.org/2000/svg">
<rect width="427" height="83" transform="translate(0 64)" fill="#182354"/>
<path d="M29.2274 90.48H36.4754L46.7954 109.392L50.3474 117.072H50.5874C50.3954 115.216 50.1874 113.184 49.9634 110.976C49.7714 108.768 49.6754 106.656 49.6754 104.64V90.48H56.3954V126H49.1954L38.9234 106.992L35.3234 99.36H35.0834C35.2434 101.28 35.4194 103.312 35.6114 105.456C35.8354 107.6 35.9474 109.696 35.9474 111.744V126H29.2274V90.48ZM76.2685 126.672C74.3805 126.672 72.6205 126.352 70.9885 125.712C69.3885 125.072 67.9805 124.16 66.7645 122.976C65.5805 121.76 64.6365 120.288 63.9325 118.56C63.2605 116.8 62.9245 114.816 62.9245 112.608C62.9245 110.432 63.2765 108.48 63.9805 106.752C64.6845 104.992 65.6125 103.504 66.7645 102.288C67.9485 101.04 69.2925 100.096 70.7965 99.456C72.3005 98.784 73.8525 98.448 75.4525 98.448C77.3085 98.448 78.9245 98.768 80.3005 99.408C81.7085 100.048 82.8765 100.944 83.8045 102.096C84.7645 103.248 85.4845 104.608 85.9645 106.176C86.4445 107.744 86.6845 109.456 86.6845 111.312C86.6845 111.952 86.6525 112.576 86.5885 113.184C86.5245 113.76 86.4445 114.208 86.3485 114.528H69.7885C70.0765 116.736 70.8765 118.416 72.1885 119.568C73.5325 120.688 75.2125 121.248 77.2285 121.248C78.3485 121.248 79.3885 121.088 80.3485 120.768C81.3405 120.448 82.3165 119.984 83.2765 119.376L85.6765 123.696C84.3325 124.624 82.8445 125.36 81.2125 125.904C79.6125 126.416 77.9645 126.672 76.2685 126.672ZM80.6365 109.872C80.6365 108.048 80.2205 106.608 79.3885 105.552C78.5565 104.464 77.2765 103.92 75.5485 103.92C74.1405 103.92 72.8765 104.432 71.7565 105.456C70.6365 106.448 69.9485 107.92 69.6925 109.872H80.6365ZM89.9991 99.12H97.0551L99.9831 112.416C100.239 113.728 100.463 115.024 100.655 116.304C100.847 117.584 101.071 118.896 101.327 120.24H101.519C101.775 118.896 102.031 117.584 102.287 116.304C102.543 114.992 102.847 113.696 103.199 112.416L106.415 99.12H112.703L116.063 112.416C116.383 113.728 116.671 115.024 116.927 116.304C117.183 117.584 117.455 118.896 117.743 120.24H117.983C118.239 118.896 118.463 117.584 118.655 116.304C118.847 115.024 119.071 113.728 119.327 112.416L122.255 99.12H128.783L122.159 126H113.855L111.023 114.288C110.735 113.008 110.463 111.744 110.207 110.496C109.983 109.248 109.743 107.904 109.487 106.464H109.247C108.991 107.904 108.751 109.264 108.527 110.544C108.303 111.792 108.047 113.04 107.759 114.288L105.023 126H96.9591L89.9991 99.12ZM132.493 105.552H149.533V110.592H132.493V105.552ZM155.636 99.12H161.396L161.876 103.872H162.068C163.06 102.112 164.228 100.768 165.572 99.84C166.916 98.912 168.292 98.448 169.7 98.448C170.436 98.448 171.044 98.512 171.524 98.64C172.004 98.736 172.452 98.864 172.868 99.024L171.62 105.12C171.172 104.96 170.724 104.848 170.276 104.784C169.86 104.72 169.38 104.688 168.836 104.688C167.78 104.688 166.676 105.088 165.524 105.888C164.372 106.656 163.412 108.016 162.644 109.968V126H155.636V99.12ZM184.51 126.672C181.63 126.672 179.534 125.728 178.222 123.84C176.91 121.92 176.254 119.28 176.254 115.92V99.12H183.31V115.008C183.31 117.12 183.598 118.592 184.174 119.424C184.782 120.224 185.742 120.624 187.054 120.624C188.174 120.624 189.134 120.368 189.934 119.856C190.734 119.344 191.598 118.48 192.526 117.264V99.12H199.582V126H193.822L193.294 122.16H193.102C191.95 123.536 190.686 124.64 189.31 125.472C187.966 126.272 186.366 126.672 184.51 126.672ZM207.105 126V87.696H214.113V126H207.105ZM233.909 126.672C232.021 126.672 230.261 126.352 228.629 125.712C227.029 125.072 225.621 124.16 224.405 122.976C223.221 121.76 222.277 120.288 221.573 118.56C220.901 116.8 220.565 114.816 220.565 112.608C220.565 110.432 220.917 108.48 221.621 106.752C222.325 104.992 223.253 103.504 224.405 102.288C225.589 101.04 226.933 100.096 228.437 99.456C229.941 98.784 231.493 98.448 233.093 98.448C234.949 98.448 236.565 98.768 237.941 99.408C239.349 100.048 240.517 100.944 241.445 102.096C242.405 103.248 243.125 104.608 243.605 106.176C244.085 107.744 244.325 109.456 244.325 111.312C244.325 111.952 244.293 112.576 244.229 113.184C244.165 113.76 244.085 114.208 243.989 114.528H227.429C227.717 116.736 228.517 118.416 229.829 119.568C231.173 120.688 232.853 121.248 234.869 121.248C235.989 121.248 237.029 121.088 237.989 120.768C238.981 120.448 239.957 119.984 240.917 119.376L243.317 123.696C241.973 124.624 240.485 125.36 238.853 125.904C237.253 126.416 235.605 126.672 233.909 126.672ZM238.277 109.872C238.277 108.048 237.861 106.608 237.029 105.552C236.197 104.464 234.917 103.92 233.189 103.92C231.781 103.92 230.517 104.432 229.397 105.456C228.277 106.448 227.589 107.92 227.333 109.872H238.277ZM261.587 90.48H269.459L275.507 107.088C275.891 108.208 276.259 109.344 276.611 110.496C276.963 111.648 277.315 112.8 277.667 113.952H277.907C278.291 112.8 278.643 111.648 278.963 110.496C279.315 109.344 279.683 108.208 280.067 107.088L285.971 90.48H293.843V126H287.363V111.168C287.363 110.336 287.395 109.424 287.459 108.432C287.523 107.408 287.587 106.384 287.651 105.36C287.747 104.304 287.843 103.28 287.939 102.288C288.035 101.264 288.131 100.336 288.227 99.504H288.035L285.155 107.856L279.683 122.784H275.603L270.083 107.856L267.251 99.504H267.059C267.155 100.336 267.251 101.264 267.347 102.288C267.443 103.28 267.539 104.304 267.635 105.36C267.731 106.384 267.811 107.408 267.875 108.432C267.939 109.424 267.971 110.336 267.971 111.168V126H261.587V90.48ZM308.604 126.48C307.388 126.48 306.284 126.304 305.292 125.952C304.332 125.568 303.5 125.04 302.796 124.368C302.124 123.664 301.596 122.832 301.212 121.872C300.828 120.912 300.636 119.856 300.636 118.704C300.476 115.408 301.612 112.976 304.044 111.408C306.508 109.808 310.524 108.928 316.092 108.768C316.22 107.36 315.996 106.24 315.42 105.408C314.876 104.544 313.58 104.112 311.532 104.112C310.284 104.112 308.972 104.336 307.596 104.784C306.252 105.232 304.972 105.856 303.756 106.656L301.644 101.616C303.116 100.72 304.812 99.968 306.732 99.36C308.684 98.752 310.716 98.448 312.828 98.448C316.252 98.448 318.828 99.456 320.556 101.472C322.284 103.456 323.148 106.4 323.148 110.304V126H317.388L316.86 123.264H316.716C315.564 124.256 314.3 125.04 312.924 125.616C311.58 126.192 310.14 126.48 308.604 126.48ZM310.764 121.104C311.788 121.072 312.716 120.848 313.548 120.432C314.412 119.984 315.26 119.344 316.092 118.512V113.088C314.396 113.216 312.78 113.392 311.244 113.616C309.708 113.84 308.62 114.304 307.98 115.008C307.372 115.712 307.084 116.544 307.116 117.504C307.148 118.624 307.5 119.504 308.172 120.144C308.876 120.784 309.74 121.104 310.764 121.104ZM330.339 87.696H337.203V110.736H337.395L346.707 99.12H354.387L345.075 110.112L355.251 126H347.619L341.091 114.864L337.203 119.28V126H330.339V87.696ZM369.659 126.672C367.771 126.672 366.011 126.352 364.379 125.712C362.779 125.072 361.371 124.16 360.155 122.976C358.971 121.76 358.027 120.288 357.323 118.56C356.651 116.8 356.315 114.816 356.315 112.608C356.315 110.432 356.667 108.48 357.371 106.752C358.075 104.992 359.003 103.504 360.155 102.288C361.339 101.04 362.683 100.096 364.187 99.456C365.691 98.784 367.243 98.448 368.843 98.448C370.699 98.448 372.315 98.768 373.691 99.408C375.099 100.048 376.267 100.944 377.195 102.096C378.155 103.248 378.875 104.608 379.355 106.176C379.835 107.744 380.075 109.456 380.075 111.312C380.075 111.952 380.043 112.576 379.979 113.184C379.915 113.76 379.835 114.208 379.739 114.528H363.179C363.467 116.736 364.267 118.416 365.579 119.568C366.923 120.688 368.603 121.248 370.619 121.248C371.739 121.248 372.779 121.088 373.739 120.768C374.731 120.448 375.707 119.984 376.667 119.376L379.067 123.696C377.723 124.624 376.235 125.36 374.603 125.904C373.003 126.416 371.355 126.672 369.659 126.672ZM374.027 109.872C374.027 108.048 373.611 106.608 372.779 105.552C371.947 104.464 370.667 103.92 368.939 103.92C367.531 103.92 366.267 104.432 365.147 105.456C364.027 106.448 363.339 107.92 363.083 109.872H374.027ZM385.886 99.12H391.646L392.126 103.872H392.318C393.31 102.112 394.478 100.768 395.822 99.84C397.166 98.912 398.542 98.448 399.95 98.448C400.686 98.448 401.294 98.512 401.774 98.64C402.254 98.736 402.702 98.864 403.118 99.024L401.87 105.12C401.422 104.96 400.974 104.848 400.526 104.784C400.11 104.72 399.63 104.688 399.086 104.688C398.03 104.688 396.926 105.088 395.774 105.888C394.622 106.656 393.662 108.016 392.894 109.968V126H385.886V99.12Z" fill="white"/>
<rect width="215" height="83" transform="translate(212)" fill="#182354"/>
<path d="M240.727 26.48H252.391C254.343 26.48 256.167 26.672 257.863 27.056C259.559 27.408 261.031 28.016 262.279 28.88C263.527 29.744 264.503 30.896 265.207 32.336C265.943 33.744 266.311 35.504 266.311 37.616C266.311 39.632 265.943 41.392 265.207 42.896C264.503 44.368 263.527 45.584 262.279 46.544C261.063 47.504 259.623 48.224 257.959 48.704C256.295 49.152 254.503 49.376 252.583 49.376H247.831V62H240.727V26.48ZM252.103 43.76C256.935 43.76 259.351 41.712 259.351 37.616C259.351 35.536 258.711 34.096 257.431 33.296C256.183 32.496 254.327 32.096 251.863 32.096H247.831V43.76H252.103ZM272.167 62V23.696H279.175V62H272.167ZM293.932 62.48C292.716 62.48 291.612 62.304 290.62 61.952C289.66 61.568 288.828 61.04 288.124 60.368C287.452 59.664 286.924 58.832 286.54 57.872C286.156 56.912 285.964 55.856 285.964 54.704C285.804 51.408 286.94 48.976 289.372 47.408C291.836 45.808 295.852 44.928 301.42 44.768C301.548 43.36 301.324 42.24 300.748 41.408C300.204 40.544 298.908 40.112 296.86 40.112C295.612 40.112 294.3 40.336 292.924 40.784C291.58 41.232 290.3 41.856 289.084 42.656L286.972 37.616C288.444 36.72 290.14 35.968 292.06 35.36C294.012 34.752 296.044 34.448 298.156 34.448C301.58 34.448 304.156 35.456 305.884 37.472C307.612 39.456 308.476 42.4 308.476 46.304V62H302.716L302.188 59.264H302.044C300.892 60.256 299.628 61.04 298.252 61.616C296.908 62.192 295.468 62.48 293.932 62.48ZM296.092 57.104C297.116 57.072 298.044 56.848 298.876 56.432C299.74 55.984 300.588 55.344 301.42 54.512V49.088C299.724 49.216 298.108 49.392 296.572 49.616C295.036 49.84 293.948 50.304 293.308 51.008C292.7 51.712 292.412 52.544 292.444 53.504C292.476 54.624 292.828 55.504 293.5 56.144C294.204 56.784 295.068 57.104 296.092 57.104ZM326.131 72.8H319.171L322.915 62.144L312.499 35.12H319.603L323.875 47.6C324.291 48.816 324.675 50.064 325.027 51.344C325.379 52.592 325.747 53.872 326.131 55.184H326.371C326.691 53.936 327.011 52.672 327.331 51.392C327.651 50.112 327.971 48.848 328.291 47.6L331.987 35.12H338.755L329.443 62.768L326.131 72.8ZM357.582 29.168C357.134 29.008 356.654 28.88 356.142 28.784C355.662 28.656 355.198 28.592 354.75 28.592C353.694 28.592 352.878 28.928 352.302 29.6C351.758 30.24 351.486 31.312 351.486 32.816V35.12H356.526V40.688H351.486V62H344.43V40.688H340.83V35.456L344.43 35.168V32.96C344.43 31.552 344.59 30.24 344.91 29.024C345.262 27.808 345.806 26.768 346.542 25.904C347.31 25.008 348.286 24.304 349.47 23.792C350.654 23.28 352.094 23.024 353.79 23.024C354.814 23.024 355.758 23.12 356.622 23.312C357.518 23.504 358.27 23.728 358.878 23.984L357.582 29.168ZM369.057 62.672C366.177 62.672 364.081 61.728 362.769 59.84C361.457 57.92 360.801 55.28 360.801 51.92V35.12H367.857V51.008C367.857 53.12 368.145 54.592 368.721 55.424C369.329 56.224 370.289 56.624 371.601 56.624C372.721 56.624 373.681 56.368 374.481 55.856C375.281 55.344 376.145 54.48 377.073 53.264V35.12H384.129V62H378.369L377.841 58.16H377.649C376.497 59.536 375.233 60.64 373.857 61.472C372.513 62.272 370.913 62.672 369.057 62.672ZM391.651 62V23.696H398.659V62H391.651Z" fill="white"/>
</svg>
