<svg width="180" height="60" viewBox="0 0 180 60" fill="none" xmlns="http://www.w3.org/2000/svg">
<path d="M57.6435 21.0898H54.9727V38.6179H57.6435V30.3626H60.0021V27.9461H57.6435V21.0898Z" fill="white"/>
<path d="M46.91 28.6206H49.2224V34.8063L44.6091 35.315V21.6834H41.9961V37.9165L51.8122 36.7719V26.3776H46.8984L46.91 28.6206ZM49.2224 21.6719V24.0652H51.8122V21.6719H49.2224Z" fill="white"/>
<path d="M64.7862 27.4138H77.4928V21.3438H62.1153V23.4712H74.822V25.3211H62.1153V31.5183H77.4928V29.3446H64.7862V27.4138ZM71.1568 35.7384V32.3623H68.4513V35.7384H61.1094V38.0624H78.5103V35.7384H71.1568Z" fill="white"/>
<path d="M83.2745 36.5178V33.1186H80.6268V38.6105H96.2818V36.5178H83.2745ZM92.9866 21.1172H83.6445C81.8524 21.1172 80.4418 22.6087 80.4418 24.5858C80.4418 26.5629 81.8524 28.0197 83.6445 28.0197H92.9866C94.7671 28.0197 96.2124 26.5513 96.2124 24.5858C96.2124 22.6202 94.7555 21.1172 92.9866 21.1172ZM92.4316 25.8345H84.1995C83.5057 25.8345 83.0201 25.3373 83.0201 24.5511C83.0201 23.7649 83.5173 23.2793 84.1995 23.2793H92.4316C93.1022 23.2793 93.611 23.7765 93.611 24.5511C93.611 25.3258 93.1022 25.8345 92.4316 25.8345ZM79.6094 29.3031V31.4189H87.0668V34.9338H89.6798V31.4189H96.9986V29.3031H79.6094Z" fill="white"/>
<path d="M116.121 28.2939V21.1602H114.213V38.561H116.121V29.901H118.676V28.3055H116.121V28.2939ZM100.744 21.9579V23.565H112.04V21.9579H100.744ZM109.542 36.0751L110.051 23.565V23.3338H108.155V23.565L107.681 36.0751H105.149L104.698 23.565V23.3338H102.779V23.565L103.276 36.0751H100.57V37.7517H112.248V36.0751H109.554H109.542Z" fill="white"/>
<path d="M122.415 30.412V27.0474H135.503V25.4519H120.507V32.0076H135.503V30.412H122.415ZM120.507 21.6133V23.2088H135.503V21.6133H120.507ZM119.328 36.4358V38.0429H136.648V36.4358H119.328Z" fill="white"/>
<path d="M152.796 21.1602V27.7852H146.899V29.3807H152.796V38.561H154.704V21.1602H152.796ZM141.373 35.867V21.8654H139.465V37.7517L150.067 36.7689V35.0693L141.373 35.867Z" fill="white"/>
<path d="M167.088 21.4297H165.181V23.6843C165.181 26.3782 161.862 29.1763 158.105 29.4306V31.0378C161.885 30.8759 165.123 28.7253 166.14 26.2742C167.158 28.7369 170.395 30.8874 174.176 31.0378V29.4306C170.441 29.1763 167.088 26.3782 167.088 23.6843V21.4297ZM157.469 36.4488V38.0559H174.789V36.4488H157.469Z" fill="white"/>
<path d="M34.8994 31.4641L27.8003 42.7024H5V17H14.6312V33.0597H22.4933L23.5108 31.4641L22.4933 29.8454H17.8454V26.6427H24.2624L27.3031 31.4641L24.2624 36.2739H11.4285V20.2142H8.21427V39.4881H26.0313L31.107 31.4641L26.0313 23.4285L21.0597 23.4401V17H24.2624V20.2142H27.8003L34.8994 31.4641Z" fill="white"/>
</svg>
