<svg width="180" height="60" viewBox="0 0 180 60" fill="none" xmlns="http://www.w3.org/2000/svg">
<g clip-path="url(#clip0_1016_1113)">
<path d="M160.999 19.2781C160.999 25.5078 155.919 30.5563 149.65 30.5563C143.381 30.5563 138.301 25.5078 138.301 19.2781C138.301 13.0485 143.381 8 149.65 8C155.919 8 160.999 13.0485 160.999 19.2781V19.2781Z" fill="#173AFF"/>
<path d="M37.793 26.0469H34.1016V45.7954H37.793V26.0469Z" fill="white"/>
<path d="M50.7357 40.1039C48.8102 42.6552 47.4993 43.239 46.6979 43.239C45.815 43.239 45.5195 42.6012 45.5195 40.9274V32.1836H41.75V42.203C41.75 44.7542 43.0608 46.0299 45.6825 46.0299C47.2616 46.0299 49.1056 45.5236 50.7357 43.239V45.7902H54.4814V32.1836H50.7357V40.1039Z" fill="white"/>
<path d="M25.3285 31.8142C23.9633 31.8142 22.7883 32.0538 21.6914 32.533V26.0469H18V45.4208C19.5248 45.9 21.2363 46.1903 22.9751 46.1903C28.2184 46.1903 31.5057 43.1868 31.5057 38.3509C31.5057 34.3654 29.098 31.8142 25.3285 31.8142V31.8142ZM23.4573 43.5884C22.897 43.5884 22.52 43.5074 21.6914 43.2172V35.1112C22.6015 34.686 23.2162 34.5004 23.9633 34.5004C26.1842 34.5004 27.5732 36.0966 27.5732 38.5399C27.5732 41.4117 25.753 43.5884 23.4539 43.5884H23.4573Z" fill="white"/>
<path d="M95.8558 31.8125C91.4173 31.8125 88.5273 34.9476 88.5273 38.987C88.5273 43.0265 91.363 46.1616 95.8015 46.1616C100.24 46.1616 103.103 43.0265 103.103 38.987C103.103 34.9476 100.267 31.8125 95.8558 31.8125V31.8125ZM95.883 43.4011C93.7435 43.4011 92.4055 41.4607 92.4055 38.9904C92.4055 36.5202 93.6892 34.5797 95.8015 34.5797C97.9138 34.5797 99.2246 36.5202 99.2246 38.9904C99.2246 41.4607 97.9681 43.4011 95.883 43.4011Z" fill="white"/>
<path d="M122.576 31.9492C120.997 31.9492 119.153 32.4554 117.519 34.7401V32.1888H113.773V45.7955H117.519V37.8751C119.445 35.3239 120.756 34.7401 121.557 34.7401C122.44 34.7401 122.732 35.3779 122.732 37.0517V45.7955H126.505V35.7761C126.505 33.2248 125.194 31.9492 122.572 31.9492H122.576Z" fill="white"/>
<path d="M137.101 41.9398C136.112 42.5776 135.549 42.7632 135.148 42.7632C134.533 42.7632 134.397 42.338 134.397 40.8228V34.7619H137.552V32.1837H134.397V28.1172H130.866V32.1837L128.672 32.5279V34.7619H130.866V43.2154C130.866 45.2369 131.749 46.1649 133.701 46.1649C135.386 46.1649 136.883 45.3415 138.303 44.4641L137.101 41.9398V41.9398Z" fill="white"/>
<path d="M64.8865 43.3473C63.6164 43.3473 62.6825 42.8647 62.0407 42.1257C67.9225 40.2257 70.6358 38.2853 70.6358 35.9602C70.6358 33.3009 68.5236 31.7891 65.0733 31.7891C61.623 31.7891 57.3984 34.1277 57.3984 39.3652C57.3984 43.5127 60.1254 46.1685 64.4314 46.1685C66.5981 46.1685 68.7375 45.5847 70.7445 44.4677L69.3793 41.8084C68.0413 42.6319 66.5981 43.3507 64.8865 43.3507V43.3473ZM64.4858 34.3639C66.0106 34.3369 66.9988 35.0017 66.9988 35.8252C66.9988 37.3438 65.277 38.4777 61.0491 40.0502C60.9472 39.5913 60.8997 39.1155 60.8997 38.643C60.8997 35.4809 62.798 34.3909 64.4824 34.3639H64.4858Z" fill="white"/>
<path d="M78.82 31.8398C76.8945 31.8398 74.8875 32.2381 73.2031 32.9839V51.0046H76.8945V45.7435C77.5635 46.0371 78.2835 46.1687 79.1155 46.1687C83.503 46.1687 86.7122 42.848 86.7122 38.3563C86.7122 33.8646 82.9155 31.8432 78.8234 31.8432L78.82 31.8398ZM78.8744 43.6141C77.9914 43.6141 77.3224 43.4284 76.8945 43.0809V35.1065C77.8046 34.6813 78.4193 34.4957 79.1664 34.4957C81.3874 34.4957 82.7763 36.0919 82.7763 38.5352C82.7763 41.272 80.9561 43.6107 78.871 43.6107L78.8744 43.6141Z" fill="white"/>
<path d="M109.605 32.1836H105.859V45.7902H109.605V32.1836Z" fill="white"/>
<path d="M107.705 24.8242C106.316 24.8242 105.219 25.9142 105.219 27.3215C105.219 28.7287 106.316 29.7951 107.705 29.7951C109.094 29.7951 110.218 28.7051 110.218 27.3215C110.218 25.9379 109.121 24.8242 107.705 24.8242Z" fill="white"/>
</g>
<defs>
<clipPath id="clip0_1016_1113">
<rect width="143" height="43" fill="white" transform="translate(18 8)"/>
</clipPath>
</defs>
</svg>
