<svg width="180" height="61" viewBox="0 0 180 61" fill="none" xmlns="http://www.w3.org/2000/svg">
<path d="M36.3759 43.0859C36.2672 43.0859 36.1512 43.122 36.0352 43.1292C36.1512 43.122 36.2672 43.1004 36.3759 43.0859Z" fill="#282828"/>
<path d="M25.7266 21.6797V38.8432C25.7266 46.0923 34.6424 51.9691 45.642 51.9691C56.6415 51.9691 65.5501 46.0923 65.5501 38.8432V21.6797H25.7266Z" fill="#00A8FF"/>
<path d="M59.1561 21.7383V38.9018C59.1561 45.4396 51.8956 50.8566 42.457 51.8337C43.5134 51.9436 44.5749 51.9987 45.6371 51.999C56.6294 51.999 65.5452 46.1221 65.5452 38.8731V21.7383H59.1561Z" fill="#008ECC"/>
<path d="M15 19.8053L41.958 29.2385L76.2709 17.4345L47.1492 9L15 19.8053Z" fill="#FFE148"/>
<path d="M76.2709 17.4336V18.6549L41.958 30.4589L15 21.033V19.8044L41.958 29.2376L76.2709 17.4336Z" fill="#008ECC"/>
<path d="M48.1328 46.5282C48.2486 46.4421 48.3724 46.3672 48.5026 46.3047C48.3728 46.3622 48.2489 46.4322 48.1328 46.5138V46.5282Z" fill="#FF3131"/>
<path d="M49.9599 45.7048C48.5078 46.8687 49.0233 46.0712 48.5078 46.3011C48.9943 46.1215 48.457 46.9836 49.9018 45.827C50.577 45.2881 52.8786 43.0035 54.4469 41.3008C52.8931 42.9604 50.6351 45.1732 49.9599 45.7048Z" fill="#FFD527"/>
<path d="M47.2629 43.1065V44.0404L51.2997 40.9943C52.385 40.1952 53.3295 39.2242 54.095 38.1205C54.6812 37.3115 55.0629 36.3753 55.2082 35.3903C55.3535 34.4053 55.2581 33.4002 54.9299 32.4592C53.8281 31.2933 52.3485 30.546 50.7479 30.347C48.5045 30.1243 43.8069 31.9275 41.8829 32.9621C40.7939 33.5512 41.7377 33.5081 41.0625 33.9679C42.1806 34.9881 44.5475 37.1506 45.2227 37.8547C46.0795 38.7886 47.2629 43.1065 47.2629 43.1065Z" fill="#FFE148"/>
<path d="M56.8032 36.2968C56.6995 35.384 56.392 34.5054 55.9029 33.7248C55.6255 33.2676 55.2994 32.8413 54.93 32.4531C55.2647 33.3939 55.3662 34.4005 55.2259 35.3881C55.0857 36.3758 54.7078 37.3157 54.1241 38.1288C53.3586 39.2325 52.4141 40.2035 51.3288 41.0026L47.2339 44.0344L47.125 47.7918C47.253 47.7069 47.3892 47.6347 47.5316 47.5763C48.0906 47.3464 47.5316 48.1941 49.1071 46.9872C49.8331 46.434 52.338 44.1134 54.0515 42.3963C54.6277 41.8376 55.1638 41.2399 55.656 40.6074C56.5474 39.3527 56.9544 37.8232 56.8032 36.2968V36.2968Z" fill="#008ECC"/>
<path d="M27.6771 41.9218L27.6117 42.8199L31.6994 40.061C32.7869 39.3412 33.7462 38.4478 34.5382 37.4172C35.1304 36.6563 35.5303 35.7664 35.7046 34.8217C35.8788 33.8769 35.8225 32.9046 35.5401 31.9858C34.531 30.8071 33.1357 30.0164 31.5977 29.7514C29.4196 29.4425 24.8165 30.9728 22.8852 31.9068C21.8034 32.424 22.7182 32.4312 22.043 32.8407C23.0812 33.8753 25.2739 36.0737 25.891 36.785C26.7332 37.6902 27.6771 41.9218 27.6771 41.9218Z" fill="#FFE148"/>
<path d="M37.214 35.7927C37.1504 34.9046 36.8901 34.0413 36.4517 33.2638C36.1969 32.8067 35.89 32.3801 35.5369 31.9922C35.8177 32.9153 35.8706 33.8917 35.6912 34.8392C35.5118 35.7868 35.1053 36.678 34.5059 37.438C33.7214 38.4611 32.7722 39.3494 31.6961 40.0675L27.6375 42.8263L27.3398 46.4616C27.4641 46.3804 27.5983 46.3152 27.7392 46.2676C28.291 46.0736 27.6811 46.8639 29.2856 45.7719C30.0117 45.269 32.5383 43.1496 34.2808 41.5474C34.8662 41.0353 35.4145 40.4831 35.9217 39.895C36.8317 38.7232 37.2899 37.2687 37.214 35.7927V35.7927Z" fill="#008ECC"/>
<path d="M39.3359 36.504C39.5635 36.1969 39.8213 35.9129 40.1055 35.6562C39.8213 35.9129 39.5635 36.1969 39.3359 36.504Z" fill="#E1F7FF"/>
<path d="M44.3799 47.2617C44.2638 47.2617 44.1551 47.2978 44.0391 47.305C44.1551 47.2978 44.2638 47.2761 44.3799 47.2617Z" fill="#282828"/>
<path d="M43.4899 34.332H43.1414C42.577 34.3686 42.0237 34.5049 41.5078 34.7344C42.0237 34.5049 42.577 34.3686 43.1414 34.332H43.4899Z" fill="#282828"/>
<path d="M26.124 46.7603C29.7752 46.364 32.3525 42.5927 31.8807 38.337C31.409 34.0812 28.0667 30.9525 24.4156 31.3488C20.7645 31.7451 18.1871 35.5164 18.6589 39.7721C19.1307 44.0279 22.4729 47.1566 26.124 46.7603Z" fill="#008ECC"/>
<path d="M25.4365 47.3814C29.0877 46.9851 31.665 43.2138 31.1932 38.9581C30.7215 34.7023 27.3792 31.5736 23.7281 31.9699C20.077 32.3662 17.4996 36.1375 17.9714 40.3932C18.4432 44.649 21.7854 47.7777 25.4365 47.3814Z" fill="#FFE148"/>
<path d="M25.2549 45.7373C28.1287 45.4254 30.1575 42.4579 29.7863 39.1093C29.4151 35.7607 26.7844 33.299 23.9106 33.611C21.0367 33.9229 19.008 36.8904 19.3792 40.239C19.7504 43.5876 22.381 46.0493 25.2549 45.7373Z" fill="#E1F7FF"/>
<path d="M20.0212 40.1636C19.6654 36.945 21.5314 34.0856 24.225 33.5898H23.8983C21.0304 33.8988 18.9975 36.8659 19.3678 40.2139C19.738 43.5618 22.3736 46.026 25.2415 45.7171L25.5682 45.6596C22.8237 45.7818 20.377 43.3894 20.0212 40.1636Z" fill="#008ECC"/>
<path d="M24.3949 42.1379C25.0445 42.1379 25.5711 41.2309 25.5711 40.1119C25.5711 38.993 25.0445 38.0859 24.3949 38.0859C23.7453 38.0859 23.2188 38.993 23.2188 40.1119C23.2188 41.2309 23.7453 42.1379 24.3949 42.1379Z" fill="#00A8FF"/>
<path d="M51.8382 39.9805C51.526 35.4327 48.0991 31.9555 44.2002 32.2213C42.7182 32.3325 41.3227 32.9555 40.2578 33.9815C41.2192 33.29 42.3627 32.8894 43.5496 32.8282C44.7365 32.7669 45.9159 33.0478 46.9447 33.6366C47.1621 33.7573 47.3729 33.8892 47.5763 34.0318C48.6113 34.8075 49.4608 35.7993 50.0644 36.9367C50.668 38.0742 51.0109 39.3292 51.0686 40.6127C51.1841 41.8881 51.0143 43.173 50.5713 44.3762C50.1284 45.5794 49.4231 46.6713 48.5057 47.5744C49.6688 46.6942 50.5854 45.5347 51.1686 44.2057C51.7518 42.8767 51.9823 41.4223 51.8382 39.9805V39.9805Z" fill="#008ECC"/>
<path d="M51.0694 40.61C51.0063 39.3249 50.6573 38.0693 50.0474 36.933C49.4375 35.7967 48.5816 34.8076 47.5409 34.0363C47.3375 33.8937 47.1266 33.7618 46.9092 33.6411C45.8845 33.0598 44.7122 32.7831 43.5326 32.8443C42.353 32.9054 41.2163 33.3018 40.2586 33.986L39.9101 34.2446C38.2673 35.6325 37.2274 37.5929 37.006 39.7191C36.9245 40.3336 36.9051 40.9545 36.9479 41.5727C37.2673 46.1204 40.687 49.5977 44.5931 49.3319C46.0729 49.2202 47.4659 48.5972 48.5283 47.5717C49.4418 46.6667 50.1431 45.5739 50.5822 44.3708C51.0214 43.1677 51.1877 41.8838 51.0694 40.61V40.61ZM44.7674 47.5214L44.4189 47.5717C41.3477 47.78 38.6541 45.0428 38.4072 41.4649C38.3663 40.8793 38.3955 40.2908 38.4944 39.712C38.6609 38.6488 39.0788 37.6395 39.7141 36.7664C39.9436 36.4608 40.2012 36.177 40.4837 35.9186C40.8979 35.5415 41.3711 35.2334 41.885 35.0062C42.4008 34.7753 42.9539 34.6366 43.5186 34.5967C43.6347 34.5967 43.7509 34.5967 43.8671 34.5967C44.5669 34.5981 45.2581 34.7501 45.8927 35.0421C46.9507 35.5826 47.8444 36.3917 48.4823 37.3865C49.1202 38.3813 49.4793 39.526 49.523 40.7034C49.7989 44.1519 47.6716 47.1191 44.7674 47.5214Z" fill="#FFE148"/>
<path d="M49.5587 40.7044C49.5151 39.527 49.1559 38.3823 48.518 37.3875C47.8801 36.3927 46.9864 35.5836 45.9285 35.0431C45.2939 34.7511 44.6027 34.5991 43.9029 34.5977C41.6521 34.9138 39.8806 36.753 39.3143 39.2172C39.1465 39.9375 39.0853 40.678 39.1327 41.4156C39.3723 44.857 41.8772 47.5152 44.8032 47.5224C47.671 47.1201 49.7983 44.1529 49.5587 40.7044Z" fill="#E1F7FF"/>
<path d="M39.1256 41.4156C39.0782 40.678 39.1393 39.9375 39.3071 39.2172C39.8735 36.7817 41.645 34.9066 43.8957 34.5977C43.7796 34.5977 43.6634 34.5977 43.5472 34.5977C42.9825 34.6376 42.4294 34.7762 41.9136 35.0072C41.3998 35.2344 40.9265 35.5425 40.5124 35.9196C40.2299 36.178 39.9723 36.4618 39.7428 36.7673C39.1075 37.6405 38.6895 38.6497 38.523 39.7129C38.4242 40.2918 38.395 40.8803 38.4359 41.4659C38.6827 45.0581 41.3401 47.781 44.4475 47.5727L44.796 47.5224C41.8628 47.5152 39.3652 44.857 39.1256 41.4156Z" fill="#008ECC"/>
<path d="M43.9965 43.1145C44.6461 43.1145 45.1727 42.2074 45.1727 41.0885C45.1727 39.9696 44.6461 39.0625 43.9965 39.0625C43.3469 39.0625 42.8203 39.9696 42.8203 41.0885C42.8203 42.2074 43.3469 43.1145 43.9965 43.1145Z" fill="#00A8FF"/>
<path d="M33.7559 38.0747C34.6536 38.0235 35.5494 38.2043 36.3552 38.5992C36.6076 38.725 36.8502 38.8691 37.0812 39.0303C37.0722 39.1292 37.0577 39.2275 37.0376 39.3248C37.0376 39.3967 37.0376 39.4757 37.0376 39.5476C37.2942 37.4786 38.3316 35.5822 39.9418 34.2383L39.5498 34.4466L38.5188 34.9998L37.0667 35.7686L35.404 36.6379L33.785 37.5L32.4273 38.2184L31.3164 38.8147C31.4102 38.7714 31.5073 38.7354 31.6068 38.707L31.9118 38.5992C32.1151 38.513 32.3183 38.434 32.5289 38.3621C32.9212 38.2067 33.3348 38.1098 33.7559 38.0747V38.0747Z" fill="#008ECC"/>
<path d="M37.1203 42.9111C37.0785 42.7681 37.0517 42.6212 37.0404 42.4728C37.0404 42.3148 37.0041 42.1495 36.9896 41.9843C36.9279 41.1848 36.9425 40.3814 37.0332 39.5847C37.0332 39.5128 37.0332 39.4338 37.0332 39.362C37.0527 39.267 37.0672 39.1711 37.0767 39.0746C36.3398 38.4951 35.4329 38.1674 34.492 38.1406H34.2452H33.9838C33.7407 38.1488 33.4983 38.1704 33.2577 38.2053C33.0327 38.2053 32.8076 38.2915 32.5825 38.349H32.5172C32.2702 38.4207 32.0277 38.5071 31.7911 38.6076L31.6169 38.6866C31.5648 38.7199 31.5087 38.7465 31.4499 38.7657C31.3917 38.7844 31.3375 38.8136 31.2902 38.8519L31.1014 38.9525C31.1014 39.0171 31.1014 39.0818 31.1377 39.1464C31.3628 40.3893 30.7964 41.8119 30.6367 43.0763C31.0688 42.6173 31.6182 42.2822 32.2268 42.1064C32.6991 41.9776 33.1923 41.941 33.6788 41.9986C35.0075 42.1064 36.0167 42.7889 37.2219 43.3852C37.1929 43.2918 37.1711 43.0907 37.1203 42.9111Z" fill="#FFE148"/>
<path d="M86.1924 23.422C85.7618 23.422 85.3644 23.637 85.3644 24.1331V29.359C85.3644 30.3017 85.6624 30.5994 86.6229 30.5994H89.6037V34.0393H84.0562C83.6587 34.0393 83.4766 34.3535 83.4766 34.7339C83.4766 35.1142 83.6587 35.445 84.0562 35.445H96.8071C97.2046 35.445 97.3867 35.1142 97.3867 34.7339C97.3867 34.3535 97.2046 34.0393 96.8071 34.0393H91.2596V30.5994H95.2008C95.5983 30.5994 95.7804 30.2686 95.7804 29.8883C95.7804 29.5079 95.5983 29.1937 95.2008 29.1937H87.3847C87.1363 29.1937 87.0369 29.0944 87.0369 28.8464V24.1331C87.0369 23.637 86.6395 23.422 86.1924 23.422Z" fill="white"/>
<path d="M103.732 22.8762C101.115 22.8762 99.8236 24.0008 99.8236 25.638C99.8236 27.2753 101.115 28.3999 103.732 28.3999C106.365 28.3999 107.656 27.2753 107.656 25.638C107.656 24.0008 106.365 22.8762 103.732 22.8762ZM103.732 24.1827C105.355 24.1827 106.1 24.7946 106.1 25.638C106.1 26.4815 105.355 27.0934 103.732 27.0934C102.109 27.0934 101.38 26.4815 101.38 25.638C101.38 24.7946 102.109 24.1827 103.732 24.1827ZM110.505 22.5951C110.091 22.5951 109.693 22.8101 109.693 23.2897V31.4759H107.044C106.663 31.4759 106.481 31.7736 106.481 32.1539C106.481 32.5178 106.663 32.8155 107.044 32.8155H109.693V33.5762C109.693 34.0558 110.091 34.2708 110.505 34.2708C110.935 34.2708 111.333 34.0558 111.333 33.5762V23.2897C111.333 22.8101 110.935 22.5951 110.505 22.5951ZM108.186 29.0779C105.239 29.4252 102.092 29.4748 99.3268 29.4748C98.9293 29.4748 98.7472 29.789 98.7472 30.1694C98.7472 30.5498 98.9293 30.8475 99.3268 30.8475C100.436 30.8475 101.612 30.8309 102.771 30.7978V32.6997C102.771 33.1462 103.136 33.3447 103.583 33.3447C104.046 33.3447 104.411 33.1462 104.411 32.6997V30.7482C105.835 30.6821 107.176 30.5829 108.319 30.434C108.7 30.3844 108.849 30.0536 108.815 29.6898C108.799 29.2929 108.567 29.0283 108.186 29.0779ZM102.026 33.6093C101.579 33.6093 101.181 33.8243 101.181 34.3039V36.4373C101.181 37.3799 101.496 37.6776 102.457 37.6776H111.15C111.548 37.6776 111.73 37.3468 111.73 36.9665C111.73 36.5861 111.548 36.2719 111.15 36.2719H103.202C102.937 36.2719 102.854 36.1726 102.854 35.9246V34.3039C102.854 33.8243 102.44 33.6093 102.026 33.6093Z" fill="white"/>
<path d="M118.108 26.4153C115.906 26.4153 114.581 27.4407 114.581 29.0614C114.581 30.6821 115.906 31.7074 118.108 31.7074C120.311 31.7074 121.635 30.6821 121.635 29.0614C121.635 27.4407 120.311 26.4153 118.108 26.4153ZM118.108 22.4297C117.694 22.4297 117.28 22.6447 117.28 23.1243V24.1662H114.15C113.753 24.1662 113.571 24.4969 113.571 24.8773C113.571 25.2411 113.753 25.5719 114.15 25.5719H121.9C122.298 25.5719 122.48 25.2411 122.48 24.8773C122.48 24.4969 122.298 24.1662 121.9 24.1662H118.936V23.1243C118.936 22.6447 118.539 22.4297 118.108 22.4297ZM118.108 27.7053C119.449 27.7053 120.145 28.2676 120.145 29.0614C120.145 29.8552 119.449 30.4175 118.108 30.4175C116.783 30.4175 116.071 29.8552 116.071 29.0614C116.071 28.2676 116.783 27.7053 118.108 27.7053ZM124.566 22.5951C124.152 22.5951 123.755 22.8101 123.755 23.2897V31.4594C123.755 31.9224 124.152 32.1374 124.566 32.1374C124.997 32.1374 125.394 31.9224 125.394 31.4594V27.9203H127.232C127.646 27.9203 127.829 27.5895 127.829 27.1926C127.829 26.8122 127.646 26.4815 127.232 26.4815H125.394V23.2897C125.394 22.8101 124.997 22.5951 124.566 22.5951ZM124.119 32.8651H116.187C115.773 32.8651 115.591 33.1958 115.591 33.5762C115.591 33.94 115.773 34.2708 116.187 34.2708H123.407C123.656 34.2708 123.755 34.3535 123.755 34.6015V37.2807C123.755 37.7603 124.152 37.9753 124.566 37.9753C124.997 37.9753 125.394 37.7603 125.394 37.2807V34.1054C125.394 33.1628 125.08 32.8651 124.119 32.8651Z" fill="white"/>
<path d="M133.875 22.8762C131.259 22.8762 129.967 24.0008 129.967 25.638C129.967 27.2753 131.259 28.3999 133.875 28.3999C136.508 28.3999 137.8 27.2753 137.8 25.638C137.8 24.0008 136.508 22.8762 133.875 22.8762ZM133.875 24.1827C135.498 24.1827 136.244 24.7946 136.244 25.638C136.244 26.4815 135.498 27.0934 133.875 27.0934C132.253 27.0934 131.524 26.4815 131.524 25.638C131.524 24.7946 132.253 24.1827 133.875 24.1827ZM140.648 22.5951C140.234 22.5951 139.837 22.8101 139.837 23.2897V31.4759H137.187C136.807 31.4759 136.624 31.7736 136.624 32.1539C136.624 32.5178 136.807 32.8155 137.187 32.8155H139.837V33.5762C139.837 34.0558 140.234 34.2708 140.648 34.2708C141.079 34.2708 141.476 34.0558 141.476 33.5762V23.2897C141.476 22.8101 141.079 22.5951 140.648 22.5951ZM138.33 29.0779C135.382 29.4252 132.236 29.4748 129.471 29.4748C129.073 29.4748 128.891 29.789 128.891 30.1694C128.891 30.5498 129.073 30.8475 129.471 30.8475C130.58 30.8475 131.756 30.8309 132.915 30.7978V32.6997C132.915 33.1462 133.279 33.3447 133.726 33.3447C134.19 33.3447 134.554 33.1462 134.554 32.6997V30.7482C135.979 30.6821 137.32 30.5829 138.463 30.434C138.843 30.3844 138.992 30.0536 138.959 29.6898C138.943 29.2929 138.711 29.0283 138.33 29.0779ZM132.17 33.6093C131.723 33.6093 131.325 33.8243 131.325 34.3039V36.4373C131.325 37.3799 131.64 37.6776 132.6 37.6776H141.294C141.692 37.6776 141.874 37.3468 141.874 36.9665C141.874 36.5861 141.692 36.2719 141.294 36.2719H133.346C133.081 36.2719 132.998 36.1726 132.998 35.9246V34.3039C132.998 33.8243 132.584 33.6093 132.17 33.6093Z" fill="white"/>
<path d="M149.295 23.455C145.917 23.455 144.162 25.1584 144.162 29.1275V29.9048C144.162 33.8739 145.917 35.5773 149.295 35.5773C150.603 35.5773 151.746 35.3127 152.557 34.9488C153.17 34.6677 153.385 34.3039 153.385 33.5762V30.1859C153.385 29.2433 153.071 28.9456 152.11 28.9456H149.51C149.096 28.9456 148.914 29.2598 148.914 29.6402C148.914 30.0206 149.096 30.3513 149.51 30.3513H151.746V33.5927C151.084 33.9235 150.338 34.0723 149.361 34.0723C146.844 34.0723 145.834 32.8651 145.834 29.7725V29.2598C145.834 26.1838 146.877 24.96 149.279 24.96C150.438 24.96 151.233 25.208 151.928 25.638C152.259 25.853 152.64 25.7703 152.889 25.4065C153.137 25.0427 153.104 24.6127 152.723 24.3481C151.912 23.8189 150.835 23.455 149.295 23.455Z" fill="white"/>
<path d="M160.004 23.5543C159.574 23.5543 159.226 23.7362 159.011 24.2985L155.07 34.4527C154.888 34.9323 155.103 35.2631 155.517 35.4119C155.947 35.5607 156.394 35.4946 156.56 34.9985L157.686 31.9886H162.273L163.366 34.9488C163.565 35.4946 164.028 35.5442 164.476 35.4119C164.89 35.2796 165.121 34.8827 164.939 34.4031L161.015 24.2985C160.799 23.7362 160.452 23.5543 160.004 23.5543ZM159.988 25.5884C160.187 26.2499 160.418 26.9114 160.717 27.7383L161.776 30.5994H158.183L159.259 27.7383C159.574 26.8949 159.773 26.3161 159.988 25.5884Z" fill="white"/>
</svg>
