<svg width="180" height="61" viewBox="0 0 180 61" fill="none" xmlns="http://www.w3.org/2000/svg">
<g clip-path="url(#clip0_1016_1130)">
<path d="M52.2705 11.1562C48.0631 11.1562 44.6523 14.5478 44.6523 18.7315V42.4419C44.6622 46.6257 48.0809 50.0092 52.2883 49.9994C56.4817 49.9897 59.8788 46.6118 59.8885 42.4419V41.1888L54.6335 35.9633L54.4984 35.829C53.4668 34.8091 52.752 33.5156 52.4392 32.1029V31.9239C52.2736 31.0869 52.2508 30.2283 52.3717 29.3838C52.3868 29.2632 52.4093 29.1436 52.4392 29.0258C52.727 27.5415 53.4561 26.1772 54.5322 25.1095L54.6672 24.9752L59.9223 19.7497V18.7315C59.9223 14.5478 56.5115 11.1563 52.3041 11.1563" fill="#D0B893"/>
<path d="M66.5035 47.7687L59.8981 41.2117L54.6431 35.9638L54.5193 35.8295C53.4872 34.81 52.7723 33.5164 52.4601 32.1034V31.9244C52.2948 31.0913 52.2719 30.2363 52.3925 29.3956L52.4601 29.0375C52.7323 27.5518 53.4502 26.1827 54.5193 25.11L54.6544 24.9758L59.8981 19.7503L66.3685 13.3051C67.8495 11.8267 69.8625 10.997 71.9611 11.0001C73.9082 10.9887 75.7824 11.7358 77.1824 13.0814C80.2085 15.988 80.2921 20.7837 77.369 23.7928L77.2724 23.8904L70.667 30.4586L77.2724 37.0268C80.2493 39.9869 80.2493 44.7862 77.2724 47.7463C74.2956 50.7064 69.4691 50.7064 66.4923 47.7463L66.5035 47.7687V47.7687Z" fill="#4C4C4C"/>
<path d="M87.5493 23.9883C83.8826 23.9882 80.9102 26.944 80.9102 30.59C80.9102 34.2361 83.8825 37.1918 87.5492 37.1918C91.216 37.1918 94.1884 34.2361 94.1884 30.5901C94.1946 26.9502 91.2323 23.9945 87.5718 23.9883H87.5493" fill="#4C4C4C"/>
</g>
<path d="M106.74 22.413C106.206 22.413 105.691 22.6796 105.691 23.2742V26.3295C105.691 28.0725 105.28 29.0568 104.067 30.3691C103.244 31.2509 102.36 32.0916 101.434 32.9528C101.044 33.3219 101.105 33.8551 101.434 34.2242C101.722 34.5728 102.298 34.7778 102.73 34.3882C103.614 33.568 104.355 32.8503 105.136 32.0301C106.329 30.7997 106.638 30.2871 106.74 29.795H106.761C106.843 30.2256 107.172 30.7587 108.365 31.9891C109.146 32.8093 109.846 33.5065 110.483 34.1011C110.874 34.4497 111.45 34.3267 111.758 33.9986C112.087 33.65 112.211 33.0759 111.799 32.7273C111.1 32.0711 110.257 31.2509 109.434 30.3691C108.2 29.0568 107.789 28.0725 107.789 26.3295V23.2742C107.789 22.6796 107.296 22.413 106.74 22.413ZM114.72 21.4492C114.185 21.4492 113.691 21.7158 113.691 22.3105V38.3048C113.691 38.8994 114.185 39.166 114.72 39.166C115.254 39.166 115.748 38.8994 115.748 38.3048V29.4259H118.01C118.545 29.4259 118.771 29.0158 118.771 28.5236C118.771 28.0315 118.545 27.6419 118.01 27.6419H115.748V22.3105C115.748 21.7158 115.254 21.4492 114.72 21.4492Z" fill="white"/>
<path d="M125.355 22.1669C122.147 22.1669 120.563 24.0739 120.563 26.5961C120.563 29.1388 122.147 31.0458 125.355 31.0458C128.563 31.0458 130.147 29.1388 130.147 26.5961C130.147 24.0739 128.563 22.1669 125.355 22.1669ZM125.355 23.8689C127.391 23.8689 128.173 25.1197 128.173 26.5961C128.173 28.0725 127.391 29.3233 125.355 29.3233C123.319 29.3233 122.538 28.0725 122.538 26.5961C122.538 25.1197 123.319 23.8689 125.355 23.8689ZM134.322 21.4492C133.787 21.4492 133.293 21.7158 133.293 22.3105V30.7382C133.293 31.3329 133.787 31.5995 134.322 31.5995C134.856 31.5995 135.35 31.3329 135.35 30.7382V22.3105C135.35 21.7158 134.856 21.4492 134.322 21.4492ZM124.327 32.4812C123.833 32.4812 123.34 32.7478 123.34 33.3219V38.7149C123.34 39.8837 123.73 40.2528 124.923 40.2528H133.766C134.959 40.2528 135.35 39.8837 135.35 38.7149V33.3219C135.35 32.7478 134.856 32.4812 134.322 32.4812C133.828 32.4812 133.334 32.7478 133.334 33.3219V35.0444H125.355V33.3219C125.355 32.7478 124.841 32.4812 124.327 32.4812ZM125.355 38.1407V36.6848H133.334V38.1407C133.334 38.4483 133.211 38.5713 132.903 38.5713H125.787C125.458 38.5713 125.355 38.4483 125.355 38.1407Z" fill="white"/>
<defs>
<clipPath id="clip0_1016_1130">
<rect width="49.5346" height="39" fill="white" transform="translate(44.6523 11)"/>
</clipPath>
</defs>
</svg>
