<svg width="180" height="61" viewBox="0 0 180 61" fill="none" xmlns="http://www.w3.org/2000/svg">
<g clip-path="url(#clip0_1016_1169)">
<path d="M66.4328 49C76.6044 49 84.8655 40.7266 84.8655 30.5041C84.8655 20.281 76.6044 12 66.4328 12C56.2454 12 48 20.281 48 30.5041C48 40.7266 56.2454 49 66.4328 49Z" fill="#A50034"/>
<path d="M65.6914 22.3828V38.6158H70.8292V37.1562H67.1722V22.3828H65.6914Z" fill="white"/>
<path d="M60.5475 26.8108C61.7698 26.8108 62.7551 25.8125 62.7551 24.5933C62.7551 23.3732 61.7698 22.3711 60.5475 22.3711C59.3252 22.3711 58.3398 23.3732 58.3398 24.5933C58.3398 25.8134 59.3252 26.8108 60.5475 26.8108Z" fill="white"/>
<path d="M67.1704 15.0216C66.9777 15.012 66.6114 15 66.4364 15C57.9282 15 51.0039 21.9575 51.0039 30.4981C51.0039 34.6466 52.6087 38.5349 55.5155 41.4589C58.4342 44.3762 62.3073 45.9881 66.4364 45.9881C70.5498 45.9881 74.4219 44.3762 77.3353 41.4589C80.2493 38.5349 81.8617 34.6466 81.8617 30.4981V29.8088H81.2375H70.8421V31.2354H80.3919C80.3919 31.2665 80.3919 31.4179 80.3852 31.4572C79.8997 38.7586 73.8286 44.5415 66.4364 44.5415C62.6945 44.5415 59.1859 43.0799 56.5452 40.4256C53.8959 37.7823 52.4361 34.2609 52.4361 30.4977C52.4361 26.7559 53.8959 23.2164 56.5452 20.5649C59.1859 17.9159 62.6945 16.4543 66.4364 16.4543C66.5976 16.4543 66.9896 16.4543 67.1704 16.4639V15.0216Z" fill="white"/>
<path d="M98.7264 18.229H93.1875V42.3138H110.2V37.6255H98.7264V18.229V18.229ZM122.385 33.1355H126.896V37.3467C126.064 37.6648 124.442 37.9819 122.899 37.9819C117.914 37.9819 116.253 35.4387 116.253 30.2733C116.253 25.3474 117.834 22.4431 122.82 22.4431C125.59 22.4431 127.172 23.3178 128.476 24.9872L131.92 21.8069C129.823 18.789 126.142 17.875 122.701 17.875C114.945 17.875 110.871 22.1269 110.871 30.2331C110.871 38.3 114.55 42.6712 122.662 42.6712C126.381 42.6712 130.021 41.7179 131.998 40.3273V28.6437H122.385V33.1355Z" fill="white"/>
</g>
<defs>
<clipPath id="clip0_1016_1169">
<rect width="84" height="37" fill="white" transform="translate(48 12)"/>
</clipPath>
</defs>
</svg>
