<svg width="180" height="61" viewBox="0 0 180 61" fill="none" xmlns="http://www.w3.org/2000/svg">
<g clip-path="url(#clip0_1016_1191)">
<path d="M39 45.0011H47.3274V24.0174H52.0916V45.0011H60.3857V24.0174H65.1499V45.0011H73.441V22.885C73.441 21.7107 73.2632 20.6966 72.9077 19.8429C72.5722 19.018 72.0474 18.2834 71.3755 17.6981C70.6488 17.1013 69.8038 16.6649 68.896 16.4175C67.8273 16.1266 66.7231 15.9865 65.6155 16.0011H46.8275C45.7192 15.9862 44.6143 16.1264 43.545 16.4175C42.6444 16.66 41.8083 17.0972 41.0958 17.6981C40.408 18.2758 39.8714 19.0119 39.5323 19.8429C39.1774 20.6973 39 21.7113 39 22.885V45.0011ZM139.867 16.0011H119.381C118.137 16.0011 117.031 16.1621 116.063 16.4841C115.095 16.8061 114.291 17.2551 113.651 17.8312C113.002 18.436 112.501 19.181 112.186 20.0092C111.841 20.9173 111.67 21.8818 111.681 22.8528V38.2502C111.675 39.1556 111.829 40.0549 112.135 40.9072C112.426 41.7134 112.899 42.4418 113.518 43.0358C114.139 43.6563 114.944 44.1383 115.933 44.4818C116.921 44.8253 118.115 44.997 119.514 44.997H140V37.1198H120.281V23.9498H139.867V16.0011ZM109.354 37.2529C109.354 35.8789 109.087 34.6981 108.555 33.7106C108.027 32.7311 107.259 31.9015 106.323 31.2997C105.367 30.6785 104.235 30.2241 102.925 29.9364C101.523 29.6386 100.094 29.4936 98.6607 29.5038C99.736 29.5025 100.808 29.3855 101.858 29.1549C102.883 28.9388 103.863 28.5508 104.757 28.0074C105.593 27.5042 106.3 26.8138 106.823 25.9907C107.354 25.1599 107.621 24.1458 107.621 22.9486C107.621 21.7728 107.405 20.7527 106.972 19.8882C106.537 19.0211 105.89 18.2776 105.09 17.7263C104.268 17.1496 103.274 16.7227 102.109 16.4457C100.824 16.1566 99.512 16.0075 98.1951 16.0011H77.8739V45.0011H98.3607C99.7608 45.006 101.158 44.8668 102.529 44.5856C103.776 44.3425 104.972 43.8868 106.064 43.2385C107.044 42.6371 107.867 41.8109 108.463 40.8285C109.062 39.8417 109.362 38.6498 109.362 37.2529H109.354ZM98.6607 37.0866H86.3387V23.9781H98.6607V37.0866Z" fill="white"/>
</g>
<defs>
<clipPath id="clip0_1016_1191">
<rect width="101" height="29" fill="white" transform="translate(39 16)"/>
</clipPath>
</defs>
</svg>
