<svg width="180" height="60" viewBox="0 0 180 60" fill="none" xmlns="http://www.w3.org/2000/svg">
<g clip-path="url(#clip0_1016_1236)">
<path d="M45.4545 39.5127C45.6235 39.5716 45.7926 39.6305 45.9617 39.6891C43.0873 39.7882 40.2134 39.8982 37.3397 40.0197C37.5088 39.9552 37.6778 39.891 37.8468 39.8267C38.5758 39.5384 39.083 38.8657 39.083 38.1834C39.0831 32.7021 39.0832 27.2203 39.0834 21.7392C36.1882 27.7004 33.2936 33.8785 30.3994 40.3365C27.4947 34.1438 24.5904 27.6957 21.6865 20.9276C21.6865 26.9029 21.6865 32.8785 21.6865 38.8541C21.6865 39.5976 22.13 40.2242 22.7953 40.4942C22.9748 40.5663 23.1543 40.6383 23.3338 40.7098C21.9399 40.7888 20.5461 40.8711 19.1523 40.9566C19.3318 40.8618 19.5114 40.7672 19.6908 40.6732C20.3561 40.3204 20.7995 39.6431 20.7995 38.897C20.7995 32.9651 20.7995 27.0333 20.7995 21.1016C20.7995 20.3554 20.356 19.6785 19.6908 19.3259C19.5113 19.2319 19.3318 19.1376 19.1523 19.043C21.4541 19.1824 23.7562 19.3154 26.0585 19.4418C28.1919 24.3089 30.3254 29.0145 32.4592 33.5833C34.5825 28.9483 36.706 24.4546 38.8298 20.0777C41.2071 20.1839 43.5846 20.2831 45.9623 20.3755C45.7932 20.4242 45.6242 20.4731 45.4551 20.522C44.6942 20.7416 44.2187 21.3647 44.2186 22.0336C44.2185 27.3635 44.2183 32.6934 44.2182 38.0235C44.2181 38.6921 44.6936 39.3178 45.4545 39.5127H45.4545ZM160.811 33.1707C160.642 33.2305 160.473 33.29 160.304 33.3494C159.576 33.6496 159.069 34.3219 159.069 35.1299C159.069 36.519 159.069 37.9079 159.069 39.2967C158.942 39.166 158.784 39.0957 158.594 39.0865C158.404 39.0771 158.214 39.1612 158.024 39.2748C156.218 40.36 154.127 40.8722 151.972 40.7573C144.685 40.3169 140.12 35.5935 140.12 30.0195C140.119 24.4466 144.684 19.7009 151.972 19.247C153.842 19.1442 155.648 19.5206 157.295 20.3288C157.39 20.3853 157.738 20.4905 158.087 20.473C158.245 20.4649 158.404 20.4259 158.53 20.3261C158.71 21.3916 158.889 22.4598 159.069 23.5316C158.467 21.0817 154.222 19.9952 151.972 20.1157C147.124 20.3843 146.11 25.0965 146.11 30.0091C146.11 34.9237 146.998 39.5949 151.972 39.8585C153.018 39.911 153.905 39.2302 153.905 38.4115C153.905 37.2719 153.905 36.1322 153.905 34.9926C153.905 34.2054 153.43 33.53 152.669 33.2184C152.5 33.1558 152.331 33.093 152.162 33.0307C155.046 33.0722 157.929 33.1187 160.811 33.1707V33.1707ZM84.1811 33.8223C82.1696 30.0485 80.1618 26.2472 78.1566 22.3765C76.1646 26.2253 74.1707 30.1437 72.1756 34.173C71.9991 34.587 71.648 34.919 71.1882 35.1295C71.0199 35.2071 70.8516 35.2841 70.684 35.3618C71.6474 35.3061 72.6108 35.2541 73.5742 35.2052C73.4066 35.147 73.239 35.0881 73.0713 35.0292C72.7652 34.9165 72.6121 34.6296 72.7443 34.3471C73.287 33.2667 73.8298 32.1944 74.3725 31.129C75.9565 31.0764 77.5404 31.0307 79.1244 30.9912C79.6627 32.009 80.2017 33.0231 80.74 34.034C80.8709 34.2983 80.6951 34.6077 80.3446 34.7267C80.1472 34.7987 79.9499 34.8714 79.7525 34.9441C81.6958 34.877 83.639 34.8257 85.5823 34.7881C85.495 34.7605 85.4071 34.7324 85.3198 34.7048C84.7935 34.5557 84.3994 34.2269 84.1811 33.8223V33.8223ZM74.6584 30.6085C75.3549 29.2368 76.0514 27.8764 76.7472 26.526C77.4449 27.8563 78.1426 29.1792 78.841 30.4945C77.4468 30.5277 76.052 30.5653 74.6584 30.6085ZM100.054 33.3669C99.7032 32.5044 99.3514 31.6432 98.9997 30.7839C98.605 29.823 97.7061 29.0902 96.6105 28.7313C99.0415 28.3042 99.6753 27.0891 99.6741 25.6697C99.6722 23.879 98.686 22.4065 94.3972 22.4084C91.7714 22.4084 89.1456 22.4084 86.5198 22.409C86.6362 22.4447 86.7532 22.4798 86.8696 22.5155C87.3731 22.674 87.7229 23.0811 87.7223 23.5051C87.7197 26.8893 87.7172 30.2734 87.7141 33.6569C87.7141 34.0816 87.363 34.4931 86.8588 34.6421C86.7418 34.6854 86.6248 34.7286 86.5077 34.7718C88.4877 34.7392 90.4683 34.7211 92.4488 34.7192C92.3318 34.6779 92.2148 34.6371 92.0984 34.5958C91.5936 34.4561 91.2653 34.0521 91.2653 33.6287C91.2659 32.0466 91.2659 30.4644 91.2666 28.8829C91.7264 28.8817 92.1863 28.881 92.6462 28.881C93.9607 29.0044 94.5521 29.659 94.8589 30.5421C95.1006 31.2655 95.8242 33.4765 95.8242 33.4765C96.0659 34.2369 96.8553 34.7906 97.82 34.9096C97.9003 34.9221 97.9807 34.9353 98.061 34.9478C98.4342 34.9885 98.8068 35.0123 99.1794 35.0179C99.7493 35.028 100.341 34.986 100.911 34.909C101.225 34.8626 101.54 34.8163 101.853 34.7699C101.02 34.5551 100.34 34.0277 100.054 33.3669V33.3669ZM91.9675 28.3875C91.734 28.3881 91.5 28.3881 91.2666 28.3887C91.2672 26.566 91.2672 24.7428 91.2678 22.9201H91.9681C94.0689 22.9195 96.1038 23.3084 96.1057 25.6572C96.107 28.006 94.0923 28.3843 91.9675 28.3875V28.3875ZM72.2825 24.719L72.2806 24.697L72.2825 24.7002V24.719V24.719ZM69.1582 22.9602C70.5132 22.9571 71.736 23.6561 72.2806 24.697C72.218 23.9373 72.1547 23.1769 72.0915 22.4165C67.635 22.4197 63.1786 22.424 58.7221 22.4297C58.6475 23.2483 58.5728 24.0676 58.4982 24.8881C59.0472 23.7469 60.2744 22.9946 61.6528 22.9903C62.3094 22.9871 62.9654 22.984 63.622 22.9815C63.6125 26.8705 63.6024 30.7588 63.5923 34.6478C63.5916 35.1088 63.2621 35.5748 62.7585 35.7689C62.6345 35.8234 62.5106 35.8786 62.3866 35.9337C64.3697 35.7752 66.3534 35.6324 68.3378 35.5053C68.2214 35.4689 68.1044 35.4326 67.988 35.3963C67.4851 35.2792 67.1359 34.8683 67.1372 34.4154C67.1467 30.5991 67.1568 26.7834 67.1669 22.9677C67.8305 22.9652 68.494 22.9627 69.1582 22.9602V22.9602ZM137.816 23.7914C137.817 26.3612 137.819 28.7902 137.819 31.3595C138.048 31.558 138.259 31.7541 138.453 31.9439C138.452 29.1823 138.451 26.5611 138.451 23.7995C138.45 23.284 138.735 22.8355 139.194 22.6207C139.325 22.5637 139.456 22.5061 139.588 22.4485C138.625 22.4472 137.662 22.4454 136.7 22.4435C136.824 22.5005 136.948 22.5574 137.072 22.6144C137.531 22.828 137.816 23.2784 137.816 23.7914V23.7914ZM128.145 23.6868C128.147 25.0741 128.15 26.3356 128.154 27.7229C128.36 27.7267 128.565 27.7342 128.766 27.7455C128.763 26.3462 128.76 25.0722 128.757 23.673C129.941 25.2338 131.123 26.6907 132.305 28.3311C134.636 29.0176 136.419 30.1657 137.693 31.2505C135.71 28.1275 133.721 25.2921 131.731 22.4359C130.155 22.4341 128.58 22.4316 127.004 22.4297C127.128 22.4829 127.252 22.5355 127.377 22.5888C127.837 22.7879 128.144 23.2082 128.145 23.6868V23.6868ZM47.4004 23.7769C47.3997 26.2316 47.3991 28.6862 47.3978 31.1403C48.1708 30.4519 49.3721 29.565 50.9288 28.9618C50.9352 25.9272 50.9371 23.1074 50.9231 23.0466C52.039 23.0397 53.1542 23.0335 54.2701 23.0272C55.6269 23.0222 56.8725 23.7607 57.4171 24.9069L57.4386 24.9263C57.3678 24.0957 57.2963 23.2646 57.2254 22.4316C53.5489 22.4366 49.8731 22.4422 46.1972 22.4485C46.3142 22.4917 46.4306 22.5349 46.5477 22.5775C47.0506 22.771 47.4004 23.2627 47.4004 23.7769V23.7769ZM115.753 27.515C113.628 26.6243 111.262 25.7355 111.26 24.6056C111.257 23.6034 112.743 22.7854 114.822 22.7879C117.995 22.7886 118.678 24.7396 118.678 24.7409C118.552 24.0788 118.427 23.4187 118.301 22.7591C118.301 22.7591 118.17 22.8719 117.951 22.8713C117.885 22.8706 117.82 22.8706 117.732 22.8331C116.812 22.4547 115.783 22.2318 114.82 22.2318C111.954 22.2386 109.594 23.636 109.598 25.6265C109.605 28.509 111.621 29.3689 113.659 30.2684C115.543 31.1021 117.734 31.9915 117.736 33.0462C117.74 34.1398 116.013 35.0418 113.889 34.9246C112.707 34.862 111.436 34.5971 110.383 33.8435C109.426 33.1527 109.149 32.5132 109.132 32.4731C109.249 33.0744 109.368 33.6763 109.486 34.2795C109.486 34.2795 109.66 34.1411 109.814 34.1473C109.88 34.1505 109.924 34.1705 109.968 34.2087C111.306 35.209 112.795 35.4176 113.89 35.4783C116.738 35.6424 119.71 34.5701 119.703 31.8462C119.697 29.5462 117.835 28.3981 115.753 27.515V27.515ZM107.173 33.868C107.166 30.4212 107.159 26.9751 107.152 23.5289C107.152 23.0967 107.479 22.6834 107.982 22.5211C108.099 22.4848 108.215 22.4491 108.332 22.4128C106.355 22.4115 104.378 22.4109 102.402 22.4103C102.519 22.446 102.635 22.481 102.752 22.5167C103.256 22.6777 103.606 23.0886 103.607 23.517C103.612 26.9319 103.618 30.3473 103.623 33.7621C103.624 34.1905 103.273 34.5914 102.77 34.7211C102.653 34.7599 102.536 34.7987 102.419 34.8369C104.399 34.8864 106.379 34.9509 108.358 35.0305C108.241 34.9835 108.124 34.9372 108.007 34.8902C107.503 34.7261 107.174 34.3002 107.173 33.868V33.868ZM124.826 34.8401C124.817 31.1058 124.809 27.3715 124.799 23.6373C124.798 23.1688 125.126 22.7215 125.628 22.5455C125.745 22.5067 125.861 22.4679 125.978 22.4284C124.001 22.4259 122.025 22.424 120.049 22.4222C120.165 22.4604 120.282 22.498 120.399 22.5368C120.902 22.7084 121.254 23.1493 121.255 23.6085C121.264 27.2676 121.274 30.9267 121.283 34.5852C121.284 35.0443 120.935 35.4589 120.432 35.5754C120.316 35.6111 120.199 35.6474 120.083 35.6831C122.059 35.8241 124.035 35.9794 126.009 36.151C125.893 36.0947 125.776 36.0389 125.659 35.9831C125.157 35.7833 124.827 35.3086 124.826 34.8401H124.826ZM138.454 37.4338C138.454 35.9575 138.454 34.4818 138.453 33.0057C139.003 33.4339 139.552 33.9101 140.093 34.4402C140.093 34.4402 135.649 27.0476 125.532 28.2717L126.818 28.9474C127.18 29.1372 127.582 29.2356 127.992 29.2368C128.043 29.2369 128.098 29.2375 128.156 29.2385C128.16 31.1884 128.165 33.1388 128.168 35.0887C128.169 35.5673 127.865 35.9587 127.406 36.1159C127.282 36.1573 127.159 36.1992 127.035 36.2412C127.996 36.327 128.958 36.4166 129.919 36.5099C129.795 36.4442 129.671 36.3784 129.547 36.3126C129.088 36.0684 128.781 35.6205 128.781 35.1401C128.777 33.1815 128.773 31.2223 128.768 29.2632C129.896 29.3334 131.63 29.5732 133.613 30.3058C135.229 32.5946 136.843 34.9653 138.454 37.4338V37.4338ZM57.1813 29.2368C57.5904 29.2356 57.993 29.1372 58.3544 28.9474L59.641 28.2717C49.5235 27.0476 45.0799 34.4402 45.0799 34.4402C45.8432 33.6923 46.6214 33.0513 47.3977 32.5018C47.3972 33.6996 47.3972 34.8974 47.3966 36.0953C47.3966 36.6101 47.0474 37.1438 46.5464 37.3774C46.43 37.4419 46.3136 37.5064 46.1972 37.5709C50.0407 37.0999 53.8899 36.6872 57.7429 36.3327C58.044 35.2961 58.3445 34.2657 58.6456 33.241C58.5874 33.3375 58.5285 33.4346 58.4703 33.531C57.6803 34.9133 56.1488 35.8923 54.4674 36.0577C53.2807 36.1723 52.0947 36.292 50.9086 36.4172C50.9086 36.4166 50.9184 33.6009 50.9254 30.554C53.7217 29.3979 56.1168 29.2399 57.1813 29.2368V29.2368Z" fill="white"/>
<path d="M45.4545 39.5127C45.6235 39.5716 45.7926 39.6305 45.9617 39.6891C43.0873 39.7882 40.2134 39.8982 37.3397 40.0197C37.5088 39.9552 37.6778 39.891 37.8468 39.8267C38.5758 39.5384 39.083 38.8657 39.083 38.1834C39.0831 32.7021 39.0832 27.2203 39.0834 21.7392C36.1882 27.7004 33.2936 33.8785 30.3994 40.3365C27.4947 34.1438 24.5904 27.6957 21.6865 20.9276C21.6865 26.9029 21.6865 32.8785 21.6865 38.8541C21.6865 39.5976 22.13 40.2242 22.7953 40.4942C22.9748 40.5663 23.1543 40.6383 23.3338 40.7098C21.9399 40.7888 20.5461 40.8711 19.1523 40.9566C19.3318 40.8618 19.5114 40.7672 19.6908 40.6732C20.3561 40.3204 20.7995 39.6431 20.7995 38.897C20.7995 32.9651 20.7995 27.0333 20.7995 21.1016C20.7995 20.3554 20.356 19.6785 19.6908 19.3259C19.5113 19.2319 19.3318 19.1376 19.1523 19.043C21.4541 19.1824 23.7562 19.3154 26.0585 19.4418C28.1919 24.3089 30.3254 29.0145 32.4592 33.5833C34.5825 28.9483 36.706 24.4546 38.8298 20.0777C41.2071 20.1839 43.5846 20.2831 45.9623 20.3755C45.7932 20.4242 45.6242 20.4731 45.4551 20.522C44.6942 20.7416 44.2187 21.3647 44.2186 22.0336C44.2185 27.3635 44.2183 32.6934 44.2182 38.0235C44.2181 38.6921 44.6936 39.3178 45.4545 39.5127H45.4545ZM160.811 33.1707C160.642 33.2305 160.473 33.29 160.304 33.3494C159.576 33.6496 159.069 34.3219 159.069 35.1299C159.069 36.519 159.069 37.9079 159.069 39.2967C158.942 39.166 158.784 39.0957 158.594 39.0865C158.404 39.0771 158.214 39.1612 158.024 39.2748C156.218 40.36 154.127 40.8722 151.972 40.7573C144.685 40.3169 140.12 35.5935 140.12 30.0195C140.119 24.4466 144.684 19.7009 151.972 19.247C153.842 19.1442 155.648 19.5206 157.295 20.3288C157.39 20.3853 157.738 20.4905 158.087 20.473C158.245 20.4649 158.404 20.4259 158.53 20.3261C158.71 21.3916 158.889 22.4598 159.069 23.5316C158.467 21.0817 154.222 19.9952 151.972 20.1157C147.124 20.3843 146.11 25.0965 146.11 30.0091C146.11 34.9237 146.998 39.5949 151.972 39.8585C153.018 39.911 153.905 39.2302 153.905 38.4115C153.905 37.2719 153.905 36.1322 153.905 34.9926C153.905 34.2054 153.43 33.53 152.669 33.2184C152.5 33.1558 152.331 33.093 152.162 33.0307C155.046 33.0722 157.929 33.1187 160.811 33.1707V33.1707ZM84.1811 33.8223C82.1696 30.0485 80.1618 26.2472 78.1566 22.3765C76.1646 26.2253 74.1707 30.1437 72.1756 34.173C71.9991 34.587 71.648 34.919 71.1882 35.1295C71.0199 35.2071 70.8516 35.2841 70.684 35.3618C71.6474 35.3061 72.6108 35.2541 73.5742 35.2052C73.4066 35.147 73.239 35.0881 73.0713 35.0292C72.7652 34.9165 72.6121 34.6296 72.7443 34.3471C73.287 33.2667 73.8298 32.1944 74.3725 31.129C75.9565 31.0764 77.5404 31.0307 79.1244 30.9912C79.6627 32.009 80.2017 33.0231 80.74 34.034C80.8709 34.2983 80.6951 34.6077 80.3446 34.7267C80.1472 34.7987 79.9499 34.8714 79.7525 34.9441C81.6958 34.877 83.639 34.8257 85.5823 34.7881C85.495 34.7605 85.4071 34.7324 85.3198 34.7048C84.7935 34.5557 84.3994 34.2269 84.1811 33.8223V33.8223ZM74.6584 30.6085C75.3549 29.2368 76.0514 27.8764 76.7472 26.526C77.4449 27.8563 78.1426 29.1792 78.841 30.4945C77.4468 30.5277 76.052 30.5653 74.6584 30.6085ZM100.054 33.3669C99.7032 32.5044 99.3514 31.6432 98.9997 30.7839C98.605 29.823 97.7061 29.0902 96.6105 28.7313C99.0415 28.3042 99.6753 27.0891 99.6741 25.6697C99.6722 23.879 98.686 22.4065 94.3972 22.4084C91.7714 22.4084 89.1456 22.4084 86.5198 22.409C86.6362 22.4447 86.7532 22.4798 86.8696 22.5155C87.3731 22.674 87.7229 23.0811 87.7223 23.5051C87.7197 26.8893 87.7172 30.2734 87.7141 33.6569C87.7141 34.0816 87.363 34.4931 86.8588 34.6421C86.7418 34.6854 86.6248 34.7286 86.5077 34.7718C88.4877 34.7392 90.4683 34.7211 92.4488 34.7192C92.3318 34.6779 92.2148 34.6371 92.0984 34.5958C91.5936 34.4561 91.2653 34.0521 91.2653 33.6287C91.2659 32.0466 91.2659 30.4644 91.2666 28.8829C91.7264 28.8817 92.1863 28.881 92.6462 28.881C93.9607 29.0044 94.5521 29.659 94.8589 30.5421C95.1006 31.2655 95.8242 33.4765 95.8242 33.4765C96.0659 34.2369 96.8553 34.7906 97.82 34.9096C97.9003 34.9221 97.9807 34.9353 98.061 34.9478C98.4342 34.9885 98.8068 35.0123 99.1794 35.0179C99.7493 35.028 100.341 34.986 100.911 34.909C101.225 34.8626 101.54 34.8163 101.853 34.7699C101.02 34.5551 100.34 34.0277 100.054 33.3669V33.3669ZM91.9675 28.3875C91.734 28.3881 91.5 28.3881 91.2666 28.3887C91.2672 26.566 91.2672 24.7428 91.2678 22.9201H91.9681C94.0689 22.9195 96.1038 23.3084 96.1057 25.6572C96.107 28.006 94.0923 28.3843 91.9675 28.3875V28.3875ZM72.2825 24.719L72.2806 24.697L72.2825 24.7002V24.719V24.719ZM69.1582 22.9602C70.5132 22.9571 71.736 23.6561 72.2806 24.697C72.218 23.9373 72.1547 23.1769 72.0915 22.4165C67.635 22.4197 63.1786 22.424 58.7221 22.4297C58.6475 23.2483 58.5728 24.0676 58.4982 24.8881C59.0472 23.7469 60.2744 22.9946 61.6528 22.9903C62.3094 22.9871 62.9654 22.984 63.622 22.9815C63.6125 26.8705 63.6024 30.7588 63.5923 34.6478C63.5916 35.1088 63.2621 35.5748 62.7585 35.7689C62.6345 35.8234 62.5106 35.8786 62.3866 35.9337C64.3697 35.7752 66.3534 35.6324 68.3378 35.5053C68.2214 35.4689 68.1044 35.4326 67.988 35.3963C67.4851 35.2792 67.1359 34.8683 67.1372 34.4154C67.1467 30.5991 67.1568 26.7834 67.1669 22.9677C67.8305 22.9652 68.494 22.9627 69.1582 22.9602V22.9602ZM137.816 23.7914C137.817 26.3612 137.819 28.7902 137.819 31.3595C138.048 31.558 138.259 31.7541 138.453 31.9439C138.452 29.1823 138.451 26.5611 138.451 23.7995C138.45 23.284 138.735 22.8355 139.194 22.6207C139.325 22.5637 139.456 22.5061 139.588 22.4485C138.625 22.4472 137.662 22.4454 136.7 22.4435C136.824 22.5005 136.948 22.5574 137.072 22.6144C137.531 22.828 137.816 23.2784 137.816 23.7914V23.7914ZM128.145 23.6868C128.147 25.0741 128.15 26.3356 128.154 27.7229C128.36 27.7267 128.565 27.7342 128.766 27.7455C128.763 26.3462 128.76 25.0722 128.757 23.673C129.941 25.2338 131.123 26.6907 132.305 28.3311C134.636 29.0176 136.419 30.1657 137.693 31.2505C135.71 28.1275 133.721 25.2921 131.731 22.4359C130.155 22.4341 128.58 22.4316 127.004 22.4297C127.128 22.4829 127.252 22.5355 127.377 22.5888C127.837 22.7879 128.144 23.2082 128.145 23.6868V23.6868ZM47.4004 23.7769C47.3997 26.2316 47.3991 28.6862 47.3978 31.1403C48.1708 30.4519 49.3721 29.565 50.9288 28.9618C50.9352 25.9272 50.9371 23.1074 50.9231 23.0466C52.039 23.0397 53.1542 23.0335 54.2701 23.0272C55.6269 23.0222 56.8725 23.7607 57.4171 24.9069L57.4386 24.9263C57.3678 24.0957 57.2963 23.2646 57.2254 22.4316C53.5489 22.4366 49.8731 22.4422 46.1972 22.4485C46.3142 22.4917 46.4306 22.5349 46.5477 22.5775C47.0506 22.771 47.4004 23.2627 47.4004 23.7769V23.7769ZM115.753 27.515C113.628 26.6243 111.262 25.7355 111.26 24.6056C111.257 23.6034 112.743 22.7854 114.822 22.7879C117.995 22.7886 118.678 24.7396 118.678 24.7409C118.552 24.0788 118.427 23.4187 118.301 22.7591C118.301 22.7591 118.17 22.8719 117.951 22.8713C117.885 22.8706 117.82 22.8706 117.732 22.8331C116.812 22.4547 115.783 22.2318 114.82 22.2318C111.954 22.2386 109.594 23.636 109.598 25.6265C109.605 28.509 111.621 29.3689 113.659 30.2684C115.543 31.1021 117.734 31.9915 117.736 33.0462C117.74 34.1398 116.013 35.0418 113.889 34.9246C112.707 34.862 111.436 34.5971 110.383 33.8435C109.426 33.1527 109.149 32.5132 109.132 32.4731C109.249 33.0744 109.368 33.6763 109.486 34.2795C109.486 34.2795 109.66 34.1411 109.814 34.1473C109.88 34.1505 109.924 34.1705 109.968 34.2087C111.306 35.209 112.795 35.4176 113.89 35.4783C116.738 35.6424 119.71 34.5701 119.703 31.8462C119.697 29.5462 117.835 28.3981 115.753 27.515V27.515ZM107.173 33.868C107.166 30.4212 107.159 26.9751 107.152 23.5289C107.152 23.0967 107.479 22.6834 107.982 22.5211C108.099 22.4848 108.215 22.4491 108.332 22.4128C106.355 22.4115 104.378 22.4109 102.402 22.4103C102.519 22.446 102.635 22.481 102.752 22.5167C103.256 22.6777 103.606 23.0886 103.607 23.517C103.612 26.9319 103.618 30.3473 103.623 33.7621C103.624 34.1905 103.273 34.5914 102.77 34.7211C102.653 34.7599 102.536 34.7987 102.419 34.8369C104.399 34.8864 106.379 34.9509 108.358 35.0305C108.241 34.9835 108.124 34.9372 108.007 34.8902C107.503 34.7261 107.174 34.3002 107.173 33.868V33.868ZM124.826 34.8401C124.817 31.1058 124.809 27.3715 124.799 23.6373C124.798 23.1688 125.126 22.7215 125.628 22.5455C125.745 22.5067 125.861 22.4679 125.978 22.4284C124.001 22.4259 122.025 22.424 120.049 22.4222C120.165 22.4604 120.282 22.498 120.399 22.5368C120.902 22.7084 121.254 23.1493 121.255 23.6085C121.264 27.2676 121.274 30.9267 121.283 34.5852C121.284 35.0443 120.935 35.4589 120.432 35.5754C120.316 35.6111 120.199 35.6474 120.083 35.6831C122.059 35.8241 124.035 35.9794 126.009 36.151C125.893 36.0947 125.776 36.0389 125.659 35.9831C125.157 35.7833 124.827 35.3086 124.826 34.8401H124.826ZM138.454 37.4338C138.454 35.9575 138.454 34.4818 138.453 33.0057C139.003 33.4339 139.552 33.9101 140.093 34.4402C140.093 34.4402 135.649 27.0476 125.532 28.2717L126.818 28.9474C127.18 29.1372 127.582 29.2356 127.992 29.2368C128.043 29.2369 128.098 29.2375 128.156 29.2385C128.16 31.1884 128.165 33.1388 128.168 35.0887C128.169 35.5673 127.865 35.9587 127.406 36.1159C127.282 36.1573 127.159 36.1992 127.035 36.2412C127.996 36.327 128.958 36.4166 129.919 36.5099C129.795 36.4442 129.671 36.3784 129.547 36.3126C129.088 36.0684 128.781 35.6205 128.781 35.1401C128.777 33.1815 128.773 31.2223 128.768 29.2632C129.896 29.3334 131.63 29.5732 133.613 30.3058C135.229 32.5946 136.843 34.9653 138.454 37.4338V37.4338ZM57.1813 29.2368C57.5904 29.2356 57.993 29.1372 58.3544 28.9474L59.641 28.2717C49.5235 27.0476 45.0799 34.4402 45.0799 34.4402C45.8432 33.6923 46.6214 33.0513 47.3977 32.5018C47.3972 33.6996 47.3972 34.8974 47.3966 36.0953C47.3966 36.6101 47.0474 37.1438 46.5464 37.3774C46.43 37.4419 46.3136 37.5064 46.1972 37.5709C50.0407 37.0999 53.8899 36.6872 57.7429 36.3327C58.044 35.2961 58.3445 34.2657 58.6456 33.241C58.5874 33.3375 58.5285 33.4346 58.4703 33.531C57.6803 34.9133 56.1488 35.8923 54.4674 36.0577C53.2807 36.1723 52.0947 36.292 50.9086 36.4172C50.9086 36.4166 50.9184 33.6009 50.9254 30.554C53.7217 29.3979 56.1168 29.2399 57.1813 29.2368V29.2368Z" fill="white"/>
<path d="M45.4545 39.5127C45.6235 39.5716 45.7926 39.6305 45.9617 39.6891C43.0873 39.7882 40.2134 39.8982 37.3397 40.0197C37.5088 39.9552 37.6778 39.891 37.8468 39.8267C38.5758 39.5384 39.083 38.8657 39.083 38.1834C39.0831 32.7021 39.0832 27.2203 39.0834 21.7392C36.1882 27.7004 33.2936 33.8785 30.3994 40.3365C27.4947 34.1438 24.5904 27.6957 21.6865 20.9276C21.6865 26.9029 21.6865 32.8785 21.6865 38.8541C21.6865 39.5976 22.13 40.2242 22.7953 40.4942C22.9748 40.5663 23.1543 40.6383 23.3338 40.7098C21.9399 40.7888 20.5461 40.8711 19.1523 40.9566C19.3318 40.8618 19.5114 40.7672 19.6908 40.6732C20.3561 40.3204 20.7995 39.6431 20.7995 38.897C20.7995 32.9651 20.7995 27.0333 20.7995 21.1016C20.7995 20.3554 20.356 19.6785 19.6908 19.3259C19.5113 19.2319 19.3318 19.1376 19.1523 19.043C21.4541 19.1824 23.7562 19.3154 26.0585 19.4418C28.1919 24.3089 30.3254 29.0145 32.4592 33.5833C34.5825 28.9483 36.706 24.4546 38.8298 20.0777C41.2071 20.1839 43.5846 20.2831 45.9623 20.3755C45.7932 20.4242 45.6242 20.4731 45.4551 20.522C44.6942 20.7416 44.2187 21.3647 44.2186 22.0336C44.2185 27.3635 44.2183 32.6934 44.2182 38.0235C44.2181 38.6921 44.6936 39.3178 45.4545 39.5127H45.4545ZM160.811 33.1707C160.642 33.2305 160.473 33.29 160.304 33.3494C159.576 33.6496 159.069 34.3219 159.069 35.1299C159.069 36.519 159.069 37.9079 159.069 39.2967C158.942 39.166 158.784 39.0957 158.594 39.0865C158.404 39.0771 158.214 39.1612 158.024 39.2748C156.218 40.36 154.127 40.8722 151.972 40.7573C144.685 40.3169 140.12 35.5935 140.12 30.0195C140.119 24.4466 144.684 19.7009 151.972 19.247C153.842 19.1442 155.648 19.5206 157.295 20.3288C157.39 20.3853 157.738 20.4905 158.087 20.473C158.245 20.4649 158.404 20.4259 158.53 20.3261C158.71 21.3916 158.889 22.4598 159.069 23.5316C158.467 21.0817 154.222 19.9952 151.972 20.1157C147.124 20.3843 146.11 25.0965 146.11 30.0091C146.11 34.9237 146.998 39.5949 151.972 39.8585C153.018 39.911 153.905 39.2302 153.905 38.4115C153.905 37.2719 153.905 36.1322 153.905 34.9926C153.905 34.2054 153.43 33.53 152.669 33.2184C152.5 33.1558 152.331 33.093 152.162 33.0307C155.046 33.0722 157.929 33.1187 160.811 33.1707V33.1707ZM84.1811 33.8223C82.1696 30.0485 80.1618 26.2472 78.1566 22.3765C76.1646 26.2253 74.1707 30.1437 72.1756 34.173C71.9991 34.587 71.648 34.919 71.1882 35.1295C71.0199 35.2071 70.8516 35.2841 70.684 35.3618C71.6474 35.3061 72.6108 35.2541 73.5742 35.2052C73.4066 35.147 73.239 35.0881 73.0713 35.0292C72.7652 34.9165 72.6121 34.6296 72.7443 34.3471C73.287 33.2667 73.8298 32.1944 74.3725 31.129C75.9565 31.0764 77.5404 31.0307 79.1244 30.9912C79.6627 32.009 80.2017 33.0231 80.74 34.034C80.8709 34.2983 80.6951 34.6077 80.3446 34.7267C80.1472 34.7987 79.9499 34.8714 79.7525 34.9441C81.6958 34.877 83.639 34.8257 85.5823 34.7881C85.495 34.7605 85.4071 34.7324 85.3198 34.7048C84.7935 34.5557 84.3994 34.2269 84.1811 33.8223V33.8223ZM74.6584 30.6085C75.3549 29.2368 76.0514 27.8764 76.7472 26.526C77.4449 27.8563 78.1426 29.1792 78.841 30.4945C77.4468 30.5277 76.052 30.5653 74.6584 30.6085ZM100.054 33.3669C99.7032 32.5044 99.3514 31.6432 98.9997 30.7839C98.605 29.823 97.7061 29.0902 96.6105 28.7313C99.0415 28.3042 99.6753 27.0891 99.6741 25.6697C99.6722 23.879 98.686 22.4065 94.3972 22.4084C91.7714 22.4084 89.1456 22.4084 86.5198 22.409C86.6362 22.4447 86.7532 22.4798 86.8696 22.5155C87.3731 22.674 87.7229 23.0811 87.7223 23.5051C87.7197 26.8893 87.7172 30.2734 87.7141 33.6569C87.7141 34.0816 87.363 34.4931 86.8588 34.6421C86.7418 34.6854 86.6248 34.7286 86.5077 34.7718C88.4877 34.7392 90.4683 34.7211 92.4488 34.7192C92.3318 34.6779 92.2148 34.6371 92.0984 34.5958C91.5936 34.4561 91.2653 34.0521 91.2653 33.6287C91.2659 32.0466 91.2659 30.4644 91.2666 28.8829C91.7264 28.8817 92.1863 28.881 92.6462 28.881C93.9607 29.0044 94.5521 29.659 94.8589 30.5421C95.1006 31.2655 95.8242 33.4765 95.8242 33.4765C96.0659 34.2369 96.8553 34.7906 97.82 34.9096C97.9003 34.9221 97.9807 34.9353 98.061 34.9478C98.4342 34.9885 98.8068 35.0123 99.1794 35.0179C99.7493 35.028 100.341 34.986 100.911 34.909C101.225 34.8626 101.54 34.8163 101.853 34.7699C101.02 34.5551 100.34 34.0277 100.054 33.3669V33.3669ZM91.9675 28.3875C91.734 28.3881 91.5 28.3881 91.2666 28.3887C91.2672 26.566 91.2672 24.7428 91.2678 22.9201H91.9681C94.0689 22.9195 96.1038 23.3084 96.1057 25.6572C96.107 28.006 94.0923 28.3843 91.9675 28.3875V28.3875ZM72.2825 24.719L72.2806 24.697L72.2825 24.7002V24.719V24.719ZM69.1582 22.9602C70.5132 22.9571 71.736 23.6561 72.2806 24.697C72.218 23.9373 72.1547 23.1769 72.0915 22.4165C67.635 22.4197 63.1786 22.424 58.7221 22.4297C58.6475 23.2483 58.5728 24.0676 58.4982 24.8881C59.0472 23.7469 60.2744 22.9946 61.6528 22.9903C62.3094 22.9871 62.9654 22.984 63.622 22.9815C63.6125 26.8705 63.6024 30.7588 63.5923 34.6478C63.5916 35.1088 63.2621 35.5748 62.7585 35.7689C62.6345 35.8234 62.5106 35.8786 62.3866 35.9337C64.3697 35.7752 66.3534 35.6324 68.3378 35.5053C68.2214 35.4689 68.1044 35.4326 67.988 35.3963C67.4851 35.2792 67.1359 34.8683 67.1372 34.4154C67.1467 30.5991 67.1568 26.7834 67.1669 22.9677C67.8305 22.9652 68.494 22.9627 69.1582 22.9602V22.9602ZM137.816 23.7914C137.817 26.3612 137.819 28.7902 137.819 31.3595C138.048 31.558 138.259 31.7541 138.453 31.9439C138.452 29.1823 138.451 26.5611 138.451 23.7995C138.45 23.284 138.735 22.8355 139.194 22.6207C139.325 22.5637 139.456 22.5061 139.588 22.4485C138.625 22.4472 137.662 22.4454 136.7 22.4435C136.824 22.5005 136.948 22.5574 137.072 22.6144C137.531 22.828 137.816 23.2784 137.816 23.7914V23.7914ZM128.145 23.6868C128.147 25.0741 128.15 26.3356 128.154 27.7229C128.36 27.7267 128.565 27.7342 128.766 27.7455C128.763 26.3462 128.76 25.0722 128.757 23.673C129.941 25.2338 131.123 26.6907 132.305 28.3311C134.636 29.0176 136.419 30.1657 137.693 31.2505C135.71 28.1275 133.721 25.2921 131.731 22.4359C130.155 22.4341 128.58 22.4316 127.004 22.4297C127.128 22.4829 127.252 22.5355 127.377 22.5888C127.837 22.7879 128.144 23.2082 128.145 23.6868V23.6868ZM47.4004 23.7769C47.3997 26.2316 47.3991 28.6862 47.3978 31.1403C48.1708 30.4519 49.3721 29.565 50.9288 28.9618C50.9352 25.9272 50.9371 23.1074 50.9231 23.0466C52.039 23.0397 53.1542 23.0335 54.2701 23.0272C55.6269 23.0222 56.8725 23.7607 57.4171 24.9069L57.4386 24.9263C57.3678 24.0957 57.2963 23.2646 57.2254 22.4316C53.5489 22.4366 49.8731 22.4422 46.1972 22.4485C46.3142 22.4917 46.4306 22.5349 46.5477 22.5775C47.0506 22.771 47.4004 23.2627 47.4004 23.7769V23.7769ZM115.753 27.515C113.628 26.6243 111.262 25.7355 111.26 24.6056C111.257 23.6034 112.743 22.7854 114.822 22.7879C117.995 22.7886 118.678 24.7396 118.678 24.7409C118.552 24.0788 118.427 23.4187 118.301 22.7591C118.301 22.7591 118.17 22.8719 117.951 22.8713C117.885 22.8706 117.82 22.8706 117.732 22.8331C116.812 22.4547 115.783 22.2318 114.82 22.2318C111.954 22.2386 109.594 23.636 109.598 25.6265C109.605 28.509 111.621 29.3689 113.659 30.2684C115.543 31.1021 117.734 31.9915 117.736 33.0462C117.74 34.1398 116.013 35.0418 113.889 34.9246C112.707 34.862 111.436 34.5971 110.383 33.8435C109.426 33.1527 109.149 32.5132 109.132 32.4731C109.249 33.0744 109.368 33.6763 109.486 34.2795C109.486 34.2795 109.66 34.1411 109.814 34.1473C109.88 34.1505 109.924 34.1705 109.968 34.2087C111.306 35.209 112.795 35.4176 113.89 35.4783C116.738 35.6424 119.71 34.5701 119.703 31.8462C119.697 29.5462 117.835 28.3981 115.753 27.515V27.515ZM107.173 33.868C107.166 30.4212 107.159 26.9751 107.152 23.5289C107.152 23.0967 107.479 22.6834 107.982 22.5211C108.099 22.4848 108.215 22.4491 108.332 22.4128C106.355 22.4115 104.378 22.4109 102.402 22.4103C102.519 22.446 102.635 22.481 102.752 22.5167C103.256 22.6777 103.606 23.0886 103.607 23.517C103.612 26.9319 103.618 30.3473 103.623 33.7621C103.624 34.1905 103.273 34.5914 102.77 34.7211C102.653 34.7599 102.536 34.7987 102.419 34.8369C104.399 34.8864 106.379 34.9509 108.358 35.0305C108.241 34.9835 108.124 34.9372 108.007 34.8902C107.503 34.7261 107.174 34.3002 107.173 33.868V33.868ZM124.826 34.8401C124.817 31.1058 124.809 27.3715 124.799 23.6373C124.798 23.1688 125.126 22.7215 125.628 22.5455C125.745 22.5067 125.861 22.4679 125.978 22.4284C124.001 22.4259 122.025 22.424 120.049 22.4222C120.165 22.4604 120.282 22.498 120.399 22.5368C120.902 22.7084 121.254 23.1493 121.255 23.6085C121.264 27.2676 121.274 30.9267 121.283 34.5852C121.284 35.0443 120.935 35.4589 120.432 35.5754C120.316 35.6111 120.199 35.6474 120.083 35.6831C122.059 35.8241 124.035 35.9794 126.009 36.151C125.893 36.0947 125.776 36.0389 125.659 35.9831C125.157 35.7833 124.827 35.3086 124.826 34.8401H124.826ZM138.454 37.4338C138.454 35.9575 138.454 34.4818 138.453 33.0057C139.003 33.4339 139.552 33.9101 140.093 34.4402C140.093 34.4402 135.649 27.0476 125.532 28.2717L126.818 28.9474C127.18 29.1372 127.582 29.2356 127.992 29.2368C128.043 29.2369 128.098 29.2375 128.156 29.2385C128.16 31.1884 128.165 33.1388 128.168 35.0887C128.169 35.5673 127.865 35.9587 127.406 36.1159C127.282 36.1573 127.159 36.1992 127.035 36.2412C127.996 36.327 128.958 36.4166 129.919 36.5099C129.795 36.4442 129.671 36.3784 129.547 36.3126C129.088 36.0684 128.781 35.6205 128.781 35.1401C128.777 33.1815 128.773 31.2223 128.768 29.2632C129.896 29.3334 131.63 29.5732 133.613 30.3058C135.229 32.5946 136.843 34.9653 138.454 37.4338V37.4338ZM57.1813 29.2368C57.5904 29.2356 57.993 29.1372 58.3544 28.9474L59.641 28.2717C49.5235 27.0476 45.0799 34.4402 45.0799 34.4402C45.8432 33.6923 46.6214 33.0513 47.3977 32.5018C47.3972 33.6996 47.3972 34.8974 47.3966 36.0953C47.3966 36.6101 47.0474 37.1438 46.5464 37.3774C46.43 37.4419 46.3136 37.5064 46.1972 37.5709C50.0407 37.0999 53.8899 36.6872 57.7429 36.3327C58.044 35.2961 58.3445 34.2657 58.6456 33.241C58.5874 33.3375 58.5285 33.4346 58.4703 33.531C57.6803 34.9133 56.1488 35.8923 54.4674 36.0577C53.2807 36.1723 52.0947 36.292 50.9086 36.4172C50.9086 36.4166 50.9184 33.6009 50.9254 30.554C53.7217 29.3979 56.1168 29.2399 57.1813 29.2368V29.2368Z" stroke="white" stroke-width="0.153702" stroke-miterlimit="10"/>
</g>
<defs>
<clipPath id="clip0_1016_1236">
<rect width="142" height="22" fill="white" transform="translate(19 19)"/>
</clipPath>
</defs>
</svg>
