<svg width="180" height="61" viewBox="0 0 180 61" fill="none" xmlns="http://www.w3.org/2000/svg">
<g clip-path="url(#clip0_1016_1177)">
<path d="M40.4045 17.6723C40.4703 17.7762 40.5568 17.8691 40.5673 17.973C40.6665 18.2773 40.9473 18.4603 40.9821 18.7712C40.9933 18.8758 41.1278 18.9165 41.1977 18.9622C41.2723 19.0603 41.2212 19.1707 41.3667 19.3138C41.4362 19.3581 41.3834 19.4685 41.395 19.5731C41.4644 19.6181 41.5361 19.6639 41.6048 19.7104C42.2341 20.6982 42.2957 21.8464 41.5657 22.9105C41.4488 23.0275 41.3367 23.1952 41.29 23.3572C41.2318 23.4161 41.1084 23.4792 41.0482 23.5366C41.0609 23.6412 41.1297 23.6863 41.206 23.785C40.8905 23.8671 40.8539 24.1315 40.6129 24.3124C40.5489 24.3182 40.4204 24.3298 40.3559 24.3363C40.1787 24.5113 39.9912 24.5803 39.8095 24.7024C39.752 24.7605 39.7683 24.9167 39.7745 24.9682C39.4741 25.2057 39.0355 25.3524 38.5769 25.3423C38.5144 25.3495 38.4669 25.5108 38.4033 25.5166C38.0793 25.5478 37.6885 25.5326 37.3658 25.5617C37.2311 25.5224 37.1559 25.4251 37.0201 25.3844C36.8917 25.3974 36.7625 25.4084 36.6279 25.3706C36.4179 25.2304 36.1545 25.2035 35.9483 25.1185C35.8132 25.0779 35.5675 25.2057 35.4282 25.115C34.9946 24.7358 34.5637 24.3581 34.3252 23.9594C34.1663 23.7131 33.8978 23.634 33.8048 23.3804C33.7932 23.2759 33.8421 23.1146 33.706 23.0754C33.4368 22.9948 33.549 22.8278 33.5319 22.6716C33.4512 22.5234 33.4385 22.4188 33.2924 22.2743C33.2106 22.1254 33.3174 21.9053 33.2309 21.7041C33.225 21.6526 33.2836 21.5937 33.2775 21.5422C33.1794 21.2371 33.3387 20.9073 33.3094 20.6488C33.2917 20.4926 33.334 20.2791 33.3807 20.1171C33.541 19.7874 33.6941 19.4053 33.9825 19.0639C33.9756 19.0131 33.9648 18.9092 33.96 18.8577C34.0176 18.7988 34.0824 18.793 34.1414 18.7342C34.2416 18.464 34.3473 18.2432 34.5185 18.0187C34.7472 17.7347 35.1112 17.49 35.405 17.2009C35.5802 17.0273 35.828 16.8995 35.9913 16.6206C36.0506 16.5624 36.2558 16.6482 36.3156 16.5908C36.4911 16.4172 36.7545 16.4448 36.9362 16.322C37.1186 16.2007 37.082 16.4651 37.2695 16.3954C37.3983 16.383 37.4569 16.3264 37.5799 16.2617C37.7674 16.192 37.978 16.3286 38.1781 16.362C38.3703 16.3446 38.5701 16.3794 38.781 16.5153C39.0608 16.6983 39.7057 16.6373 39.8095 16.996C39.9673 17.2423 40.2474 17.4253 40.4045 17.6723V17.6723Z" fill="#BD1138"/>
<path d="M51.3125 21.7747C51.3056 21.6127 51.3125 21.5147 51.2477 21.3426C51.23 21.1813 51.3578 21.0019 51.302 20.7804C51.2654 20.7208 51.1833 20.6504 51.1938 20.5995C51.302 20.2588 51.3115 19.948 51.2843 19.5768C51.2568 19.465 51.2202 19.4061 51.1833 19.3444C51.1916 19.2943 51.2112 19.1948 51.2293 19.0946C51.2373 18.7829 51.1377 18.552 51.0465 18.2702C51.0194 18.1612 50.9365 18.09 50.9188 17.9303C50.8826 17.8692 50.8004 17.798 50.8084 17.7479C50.8906 17.2962 50.6716 16.9345 50.6069 16.5023C50.5062 16.0121 50.042 15.7004 49.8954 15.1985C49.903 15.1477 50.0553 15.1688 50.1012 15.1789C50.4657 15.521 50.8688 15.922 50.9687 16.4144C51.0328 16.5858 51.0049 16.7354 51.0791 16.8567C51.3885 17.2373 51.4432 17.7197 51.4989 18.2012C51.4902 18.2513 51.59 18.2208 51.6266 18.2825C51.6175 18.3327 51.5991 18.4328 51.6357 18.4924C51.8727 18.7539 51.7269 19.0336 51.7735 19.3059C51.801 19.4163 51.8365 19.4766 51.8727 19.5369C51.864 19.5877 51.7461 19.7192 51.7355 19.7671C51.9288 20.0185 52.0106 20.3504 51.957 20.6511C52.1763 20.752 52.0757 21.0425 52.1293 21.2641C52.1647 21.3243 52.2125 21.3345 52.2581 21.344C52.3207 21.2539 52.3844 21.1631 52.4032 21.0622C52.4303 20.6511 52.4488 20.2893 52.3746 19.9088C52.312 19.7373 52.2914 19.5768 52.4112 19.4468C52.3196 19.4265 52.2914 19.3154 52.256 19.2551C52.092 18.5927 52.024 17.8503 51.8285 17.1727C51.8285 17.1727 51.8818 17.1328 51.8933 17.0834C51.8231 16.4899 51.3726 15.9314 51.1594 15.3329C51.1258 15.2261 50.9524 15.0983 50.871 14.985C50.871 14.985 50.8775 14.9341 50.8826 14.8833C51.1135 14.9146 51.289 15.139 51.4105 15.3104C51.6519 15.6539 51.9288 16.0339 52.0015 16.4159C52.1293 16.7565 52.3185 17.1168 52.3942 17.4494C52.4448 17.6709 52.6052 17.8148 52.7112 17.9992C52.7713 18.1722 52.7409 18.3211 52.7557 18.4822C52.8212 18.8665 52.937 19.2369 53.0094 19.619C53.1017 19.9001 53.1393 20.2204 53.0467 20.4623C52.92 20.9038 53.2117 21.3854 53.3296 21.7762C53.3944 21.949 53.3126 22.1386 53.2403 22.2787C53.2316 22.3296 53.3126 22.4 53.3033 22.4494C53.2214 22.6405 53.2862 22.8119 53.2489 23.013C53.195 23.0523 53.3126 23.1831 53.2493 23.2716C53.195 23.3145 53.1501 23.3043 53.0948 23.3443C53.0213 23.4852 53.0854 23.6551 53.0579 23.8069C52.9116 24.0866 52.9858 24.4687 52.7123 24.6698C52.611 24.6988 52.6019 24.7505 52.5469 24.7897C52.5932 24.7998 52.6305 24.8601 52.6652 24.9204C52.611 24.9596 52.565 24.9495 52.5107 24.9901C52.4933 25.0896 52.6869 25.2138 52.7238 25.2727C52.6504 25.6758 52.3504 26.0273 52.3598 26.4994C52.341 26.5997 52.3127 26.75 52.2965 26.851C52.2042 27.0914 52.0312 27.2635 51.94 27.5033C51.9223 27.6034 51.7309 27.6136 51.712 27.7146C51.5933 27.8446 51.6042 28.0559 51.521 28.247C51.4576 28.3363 51.3205 28.308 51.2112 28.3871C51.0841 28.5665 51.1015 28.7293 51.0205 28.9188C50.8826 29.1498 50.7161 29.3989 50.5804 29.6299C50.4255 29.9611 50.1635 30.28 49.8823 30.532C49.8367 30.5225 49.7362 30.5516 49.6811 30.5916C49.536 30.8734 49.3681 31.0855 49.0591 31.2256C49.0127 31.2162 48.9443 31.4341 48.8901 31.474C48.6766 31.6339 48.5535 31.8154 48.2944 31.9665C48.1974 31.9963 48.1435 32.037 48.036 31.8561C47.698 32.4589 47.2442 32.9303 46.7528 33.3436C46.4962 33.4932 46.2353 33.4773 46.0655 33.6465C45.5058 34.2 44.6159 34.7868 44.5146 34.8682C44.4714 34.858 44.3007 35.1144 44.3007 35.1144C44.1193 35.1297 44.2232 35.1463 44.0564 35.1071C44.0564 35.1071 44.0484 35.3903 43.8208 35.4376C43.3391 35.532 43.2114 36.0942 43.1748 36.3259C43.1557 36.4421 43.076 36.363 43.02 36.4094C42.9668 36.4559 43.0015 36.5249 42.9472 36.5721C42.7384 36.7021 42.5578 36.96 42.3834 37.1575C42.3298 37.204 42.2933 37.1343 42.2383 37.1822C42.1836 37.2294 41.9285 37.549 41.8362 37.8264C41.6173 38.316 41.377 38.7532 41.0755 39.0998C41.0017 39.1839 41.2464 39.5108 41.2275 39.6212C41.158 39.7752 41.0188 39.8013 40.9507 39.956C40.8881 40.3389 40.8711 40.7673 40.8049 41.1727C40.6959 41.5692 40.8316 41.8511 40.8856 42.2048C40.9449 42.5033 40.8689 42.8882 40.8841 43.1766C40.9051 43.4105 41.064 43.664 41.0383 43.8906C41.0463 44.2384 40.9673 44.192 41.0423 44.484C41.0321 44.6547 40.9767 44.8232 41.0158 44.9401C41.0017 45.1689 40.9656 45.3105 40.9529 45.5379C40.904 45.593 40.8049 45.7006 40.802 45.7572C40.7672 46.3288 40.3955 46.8315 40.0055 47.2063C39.7641 47.3617 39.5546 47.5999 39.2784 47.5795C39.1398 47.5716 38.6777 47.8657 38.5228 47.9028C38.1135 48.0175 37.7867 48.0197 37.3963 47.966C36.9631 47.8483 36.6208 47.7394 36.3222 47.2948C36.1463 47.0973 35.8413 47.1706 35.7265 46.8663C35.6921 46.7465 35.4421 46.684 35.4009 46.6208C35.1747 46.4174 35.0545 46.1683 34.8852 45.9155C34.7705 45.6119 34.8533 45.405 34.7165 45.1101C34.5743 44.9292 34.5131 44.8021 34.3724 44.6213C34.1835 44.3823 34.4155 44.038 34.2769 43.8005C34.1795 43.7366 34.0865 43.6175 34.0405 43.4983C33.9497 43.2645 33.9707 42.9245 33.8321 42.6769C33.7558 42.3798 33.8046 41.3041 33.8614 41.0136C33.8723 40.9548 33.7058 40.8726 33.7152 40.8153C33.7387 40.3977 33.8824 39.9917 33.8498 39.561C33.8932 39.3299 33.8723 39.1448 34.0814 38.9465C34.0814 38.9465 33.9826 38.8651 33.9932 38.8078C34.1147 38.4714 34.1133 38.2122 34.1795 37.8628C34.1904 37.8047 34.3123 37.7691 34.3239 37.711C34.2562 37.4546 34.2533 36.9367 34.2967 36.7036C34.3196 36.5873 34.6181 36.4145 34.6876 36.3099C34.6977 36.2532 34.6442 36.1036 34.756 35.9024C34.7845 35.853 34.8627 35.8683 34.9206 35.8218C34.9297 35.763 34.8921 35.6947 34.9022 35.6366C34.9308 35.463 35.2235 35.3366 35.2445 35.2211C35.3596 34.8261 35.5575 34.6619 35.7638 34.3401C35.8395 34.2 35.867 34.0488 35.9889 33.9188C36.0436 33.8796 36.0711 33.9182 36.0801 33.8673C36.0895 33.8164 36.0642 33.706 36.0711 33.6559C36.1876 33.5245 36.3479 33.4046 36.3744 33.2543C36.455 33.0632 36.5263 32.9238 36.6414 32.7916C36.8556 32.6311 37.0698 32.4698 37.2023 32.2403C37.3177 32.1088 37.4517 32.1394 37.5685 32.0079C37.7364 31.8365 37.7817 31.5866 37.9061 31.405C38.2007 31.0528 38.521 30.8124 38.8413 30.5712C39.108 30.3693 39.4474 30.2894 39.7055 30.1383C39.9725 29.9379 40.1332 29.5573 40.3916 29.4062C40.5504 29.2856 40.7382 29.2755 40.8997 29.1549C41.0596 29.0336 41.1935 28.8026 41.4338 28.7518C41.9658 28.6116 41.5847 28.7619 42.0834 28.5615C42.3946 28.3711 42.2658 28.3182 42.5774 28.1271C43.0938 27.825 43.3627 27.6325 43.4064 27.6427C43.46 27.6027 43.5128 27.5621 43.5309 27.4618C43.6558 27.2803 44.3176 26.8154 44.4164 26.7856C44.5138 26.7559 44.6303 26.8859 44.7447 26.7559C44.8069 26.665 44.6817 26.5852 44.7447 26.4943C44.914 26.3229 45.0762 26.0927 45.2412 25.9722C45.2951 25.9329 45.4236 26.0128 45.5235 25.9816C45.5777 25.9423 45.5958 25.8414 45.6505 25.8021C45.7145 25.7114 45.5958 25.5821 45.6592 25.4891C45.7326 25.349 45.8047 25.2088 45.9056 25.1797C46.0616 25.1092 46.2704 24.9989 46.2439 24.8892C46.2787 24.6872 46.3612 24.4962 46.5711 24.3858C46.5806 24.3372 46.5906 24.2841 46.5983 24.2347C46.7163 24.104 46.8262 24.0249 46.9456 23.8948C47.0719 23.714 47.0169 23.4932 47.0911 23.3515C47.3267 23.0901 47.5554 22.8809 47.6191 22.5286C47.6014 22.3674 47.5004 22.1364 47.5739 21.9948C47.6368 21.9062 47.837 21.8451 47.8558 21.7456C47.892 21.5438 47.7914 21.3127 47.7823 21.1029C47.8088 20.9518 47.9727 20.8312 47.9549 20.6707C47.9365 20.2487 47.964 19.8368 47.901 19.4061C48.0454 19.3866 48.0646 19.2841 48.0816 19.1839C48.0454 18.8629 47.8626 18.5629 47.7813 18.2302C47.7722 18.0196 47.9437 17.8482 47.9354 17.639C47.9166 17.4778 47.7635 17.286 47.597 17.1466C47.4432 16.9555 47.5435 16.6643 47.4888 16.4442C47.4432 16.1733 47.241 15.9706 47.2047 15.651C47.1863 15.4898 46.9948 15.5 46.9312 15.3286C46.8762 15.1085 46.8215 14.887 46.8215 14.6255C46.794 14.5151 46.6478 14.5354 46.566 14.4657C46.3826 14.1643 46.4474 13.5513 46.0453 13.4118C46.0815 13.2106 45.8998 13.1692 45.835 13C46.0724 13 46.2914 13.1002 46.4285 13.3914C46.4647 13.451 46.6015 13.4823 46.6467 13.4924C46.7665 13.6224 46.7575 13.9333 46.8852 14.0146C47.0488 14.1541 47.2949 14.1033 47.3593 14.2754C47.4505 14.555 47.6608 14.7061 47.7613 14.937C47.7519 14.9879 47.7794 15.0983 47.8153 15.1586C47.9806 15.2988 47.9987 15.4586 48.1153 15.5893C48.3896 15.9111 48.6643 16.2328 48.5357 16.6745C48.4558 16.8655 48.7008 16.8147 48.7754 16.9345C48.9577 17.2359 48.8836 17.639 49.1213 17.8991C49.0757 18.4118 49.3232 18.8839 49.4785 19.3349C49.2136 19.7468 49.3605 20.4681 49.5707 20.8791C49.5707 20.8791 49.7166 20.8602 49.7268 20.8094C49.7716 20.5603 50.2261 20.4753 50.1527 20.3547C50.0611 20.0722 49.924 19.4861 49.924 19.226C49.9515 18.8128 49.9692 18.4511 49.9051 18.0196C49.869 17.9586 49.8324 17.8991 49.7958 17.8395C49.7408 17.6179 49.6862 17.3964 49.7322 17.1466C49.7047 17.0347 49.6225 16.9671 49.595 16.8553C49.6044 16.8045 49.6225 16.7042 49.6312 16.6541C49.7322 16.6243 49.8599 16.7042 49.9504 16.7253C50.034 16.7943 49.959 16.9345 49.9963 16.9955C50.1425 17.2359 50.3611 17.3368 50.4067 17.6085C50.398 17.6572 50.3799 17.7581 50.3716 17.809C50.4078 18.13 50.5985 18.3813 50.6452 18.6529C50.664 18.8128 50.5283 19.043 50.5913 19.2151C50.8004 19.6269 50.8095 20.0976 50.7747 20.5603C50.7374 20.76 50.9919 20.9212 50.9198 21.0607C50.8482 21.2024 50.939 21.2227 50.8648 21.3636C50.8562 21.4137 50.7559 21.4428 50.748 21.4944C50.8837 21.7856 50.6778 22.2264 50.6315 22.4778C50.6228 22.5279 50.7874 22.5817 50.8207 22.3964C50.8413 22.286 51.0309 22.2868 51.1297 22.2569C51.2402 22.1757 51.3212 21.9846 51.3125 21.7747V21.7747ZM52.295 22.7785C52.3037 22.5228 52.4228 22.3369 52.3768 22.0659C52.2863 21.7841 52.0801 22.0638 51.9327 22.0833C52.016 22.4146 51.8792 22.6448 51.7786 22.9368C51.7157 23.0269 51.6704 23.2775 51.8151 23.2578C52.0438 23.3087 52.2871 23.0901 52.295 22.7785ZM51.9045 24.1534C51.9614 24.0728 51.935 23.9116 51.8524 23.8404C51.7257 23.7604 51.5608 23.8818 51.4873 24.022C51.4134 24.1621 51.4695 24.3836 51.6621 24.3728C51.7069 24.3836 51.8405 24.2442 51.9045 24.1534V24.1534Z" fill="#0087CB"/>
<path d="M49.2211 15.586C49.4641 15.7705 49.5596 16.0792 49.7509 16.3298L49.7321 16.4307C49.3957 16.7206 49.1028 16.2382 49.0112 15.9579C48.876 15.6673 48.7389 15.3761 48.4904 15.164C48.5005 15.1146 48.51 15.0653 48.5201 15.0136C48.4003 14.8822 48.247 14.6934 48.4003 14.6222C48.4637 14.5321 48.5747 14.7129 48.7013 14.7936C48.8926 15.0442 48.9284 15.3645 49.2211 15.586V15.586Z" fill="#0087CB"/>
<path d="M50.599 14.2983C50.6019 14.3498 50.5209 14.4363 50.51 14.4857C50.3509 14.3397 50.1929 14.1915 50.0551 13.9453C50.0106 13.9315 49.9205 13.9083 49.8843 13.8458C49.8398 13.8335 49.85 13.7847 49.8612 13.7353C50.0073 13.7216 50.1216 13.8567 50.2467 13.9417C50.2905 13.954 50.348 13.917 50.3921 13.9286C50.5169 14.0136 50.5871 14.1371 50.599 14.2983V14.2983Z" fill="#0087CB"/>
<path d="M30.0134 23.54C30.0572 23.5763 30.122 23.6337 30.1564 23.678C30.2302 23.7273 30.3058 23.7325 30.3855 23.6976C30.4607 23.7034 30.5284 23.9003 30.6054 23.9053C30.7151 23.9576 30.7835 24.153 30.891 24.2467C30.9645 24.2932 31.0412 24.3636 31.1139 24.413C31.2178 24.5467 31.2854 24.6782 31.3929 24.7718C31.4632 24.8619 31.5797 24.83 31.6568 24.835C31.8055 24.8902 31.8652 25.1059 31.9708 25.2403C32.0092 25.2439 32.0754 25.3761 32.0736 25.4189C32.1453 25.4654 32.2159 25.5555 32.327 25.6064C32.3602 25.6521 32.3559 25.7364 32.3896 25.7807C32.6642 26.2252 33.0261 26.507 33.2592 26.9893C33.2592 26.9893 33.2895 27.0765 33.2874 27.1186C33.5722 27.3946 33.6967 27.7846 33.9413 28.0998C34.0082 28.2306 34.0701 28.447 34.132 28.6199C34.2026 28.7107 34.2761 28.7586 34.3448 28.8494C34.4476 29.0259 34.5467 29.2453 34.5685 29.4573C34.5627 29.5402 34.5077 29.7885 34.3633 29.6505C34.186 29.4675 34.2037 29.2177 34.0235 29.0753C34.0268 29.0339 33.9778 28.9235 33.9413 28.8806C33.8686 28.7935 33.7379 28.7986 33.7079 28.6707C33.7177 28.5451 33.5765 28.4419 33.5046 28.3548C33.3232 28.0947 33.0602 27.9974 32.8426 27.7345C32.8032 27.7337 32.7648 27.7316 32.725 27.7708C32.6849 27.8529 32.5661 27.9742 32.6743 28.1049C32.8234 28.1964 32.8933 28.3679 33.0811 28.4616C33.1915 28.5502 33.2201 28.8036 33.2874 29.0179C33.3601 29.1043 33.4336 29.1915 33.5458 29.2409C33.6565 29.3295 33.6128 29.4631 33.7177 29.599C33.7144 29.6411 33.6735 29.6789 33.6699 29.7202C33.7379 29.8539 33.8914 29.822 33.9974 29.9578C34.0785 29.8808 34.1906 29.9418 34.2576 30.0638C34.1339 30.1808 34.1653 30.2672 34.1183 30.3914C33.9891 30.5904 34.2807 30.7822 34.4639 30.8817C34.579 30.8904 34.5627 31.1003 34.6712 31.1932C34.7385 31.3255 34.9278 31.3414 35.0299 31.5179C35.0624 31.6051 34.9836 31.6407 34.9387 31.7206C34.9289 31.8469 35.0787 31.9007 35.1514 31.9486C35.2238 31.9973 35.2564 32.0852 35.2879 32.1709C35.171 32.2036 34.9455 32.0474 34.8316 32.0365C34.7603 32.0045 34.6224 31.8397 34.4769 31.8077C34.4262 31.7961 34.3911 31.9174 34.3368 31.9058C34.2681 31.8927 34.1939 31.8789 34.1183 31.8644C34.0376 31.8498 33.844 31.6363 33.7611 31.6232C33.6655 31.6065 33.549 31.7823 33.4567 31.7663C33.1129 31.7082 33.0996 31.6843 32.9921 31.6399C32.864 31.5877 32.7431 31.5281 32.6299 31.4634C32.5557 31.4235 32.5763 31.3247 32.5068 31.2797C32.4373 31.2339 32.2882 31.2347 32.218 31.1911C31.9433 31.0218 31.6839 30.6398 31.449 30.517C31.2941 30.4371 31.1639 30.3565 30.9923 30.2751C30.9073 30.2222 30.8476 30.1038 30.7426 30.0689C30.4199 29.9599 30.1604 29.7551 29.7923 29.6505C29.0946 29.4523 28.5156 29.8539 27.9482 30.1474C27.9188 30.1474 27.8592 30.1416 27.8277 30.1634C27.697 30.2751 27.5428 30.3347 27.4137 30.4211C27.2378 30.5621 26.9935 30.5984 26.7992 30.7124C26.7369 30.7494 26.7304 30.8628 26.6704 30.8991C26.5781 30.9529 26.4134 30.9645 26.3222 31.0204C26.2404 31.0748 26.2299 31.1722 26.1492 31.2325C25.9871 31.3639 25.8276 31.4714 25.6075 31.5753C25.4816 31.6399 24.4368 31.8186 24.2627 31.8215C23.9932 31.8251 23.8064 32.0481 23.4047 32.0474C22.7935 32.0445 22.1823 32.0321 21.6745 31.6523C21.5674 31.5593 21.5468 31.3051 21.4752 31.2565C21.2559 31.1126 21.2772 30.8199 21.2149 30.6034C21.1436 30.557 20.9913 30.5446 21.0004 30.4175C21.0844 29.7922 21.3927 29.2256 21.7698 28.7942C21.858 28.6323 22.0545 28.5647 22.0701 28.3548C22.0701 28.3548 22.4092 27.8762 22.6151 27.6829C22.6599 27.6023 22.5927 27.4694 22.6364 27.3895C22.9488 26.7823 23.514 26.3654 23.9754 25.8119C24.0981 25.6964 24.1864 25.5337 24.3793 25.5076C24.4574 25.5134 24.532 25.5199 24.5758 25.4393C24.6669 25.2366 24.8291 25.1234 24.95 25.0485C25.3918 24.7471 25.7628 24.291 26.2672 24.2068C26.3458 24.1719 26.3902 24.0913 26.4684 24.0542C26.5524 23.9772 26.6979 24.0724 26.7764 24.0367C27.1517 23.8675 27.494 23.5036 27.8794 23.4507C27.9583 23.4158 28.0032 23.3337 28.0404 23.3373C28.3832 23.3664 28.7863 23.0613 29.1076 23.3831C29.3978 23.3236 29.8307 23.3838 30.0134 23.54V23.54ZM32.6339 27.2202C32.6349 27.1781 32.6368 27.1367 32.6378 27.0946C32.4891 27.0031 32.4229 26.7474 32.2332 26.6958C32.1959 26.6944 32.1178 26.7329 32.116 26.7743C32.1065 27.0271 32.214 27.1999 32.3197 27.4149C32.3642 27.2493 32.4779 27.2551 32.5503 27.3836C32.589 27.3444 32.6309 27.2617 32.6339 27.2202V27.2202Z" fill="#2D9646"/>
<path d="M69.2001 38.9858L67.4721 40.7906L62.6674 36.0885C62.0366 37.2121 61.2839 38.1665 60.4074 38.9501C59.532 39.7338 58.6609 40.3709 57.7935 40.8612L56.1133 38.9378C57.0593 38.4635 57.8673 37.9086 58.5383 37.276C59.2081 36.6434 59.7571 35.9774 60.1834 35.2801C60.6086 34.5842 60.9205 33.8717 61.1189 33.1432C61.315 32.4154 61.4141 31.7029 61.4141 31.0056V27.6805H64.0646V30.5306C64.0646 31.0848 64.0294 31.6157 63.9582 32.122C63.8865 32.629 63.7953 33.1192 63.6853 33.595L69.2001 38.9858V38.9858ZM74.6909 47.1547H72.1819V34.4251H66.9517V32.0029H72.1819V25.543H74.6909V47.1547Z" fill="white"/>
<path d="M97.3954 37.7053H88.4254V38.8921H92.8747V44.474H84.284V45.5424H93.4436V47.9647H81.681V42.1694H90.2479V41.2193H81.5623V38.8921H85.8929V37.7053H77.1133V35.3302H97.3954V37.7053ZM92.6605 30.0571C92.6605 30.7384 92.5157 31.3602 92.2234 31.9216C91.9324 32.4838 91.5416 32.9712 91.0538 33.383C90.5482 33.7781 89.9518 34.0868 89.2653 34.309C88.5792 34.5306 87.8333 34.6417 87.0293 34.6417C86.2718 34.6417 85.5582 34.5378 84.8876 34.3316C84.2167 34.1267 83.6214 33.826 83.1003 33.4302C82.5959 33.0329 82.1974 32.555 81.905 31.9928C81.6137 31.4306 81.4675 30.7936 81.4675 30.0811C81.4675 29.3693 81.6086 28.7229 81.893 28.1462C82.1779 27.568 82.5715 27.0727 83.0768 26.6601C83.5664 26.2498 84.1493 25.9323 84.8286 25.7108C85.5061 25.4893 86.2403 25.3789 87.0293 25.3789C87.8026 25.3789 88.5329 25.4893 89.2183 25.7108C89.9048 25.9323 90.5001 26.2498 91.0052 26.6601C91.5105 27.0567 91.9122 27.5448 92.2118 28.1215C92.5114 28.6996 92.6605 29.3454 92.6605 30.0571V30.0571ZM90.0582 30.0332C90.0582 29.2894 89.7586 28.7033 89.1593 28.2762C88.5596 27.8484 87.85 27.6355 87.0293 27.6355C86.177 27.6355 85.4626 27.844 84.8876 28.2653C84.3115 28.6836 84.0242 29.2742 84.0242 30.0332C84.0242 30.7631 84.3115 31.3325 84.8876 31.7444C85.4626 32.1555 86.177 32.3603 87.0293 32.3603C87.85 32.3603 88.5596 32.1715 89.1593 31.7916C89.7586 31.4117 90.0582 30.8248 90.0582 30.0332V30.0332Z" fill="white"/>
<path d="M118.707 39.2598H98.4492V36.8615H118.707V39.2598ZM114.305 47.9663H111.772V43.0135H102.708V40.5905H114.305V47.9663V47.9663ZM114.258 35.6267H102.803V26.2695H114.116V28.6678H105.312V29.6898H113.832V32.112H105.312V33.2292H114.258V35.6267V35.6267Z" fill="white"/>
<path d="M130.069 36.5867H120.438V26.7072H122.945V29.5581H127.537V26.7072H130.069V36.5867V36.5867ZM127.537 34.1877V31.9556H122.945V34.1877H127.537ZM137.192 47.9631H125.573V42.0015H134.02V40.7667H125.454V38.3676H136.625V44.33H128.223V45.5648H137.192V47.9631V47.9631ZM137.382 37.6791H134.898V35.3766H130.826V32.9994H134.898V31.2911H130.826V28.892H134.898V25.543H137.382V37.6791V37.6791Z" fill="white"/>
<path d="M152.818 39.0569L151.091 40.8612L146.31 36.1357C145.694 37.276 144.949 38.2376 144.073 39.0213C143.197 39.8058 142.31 40.4435 141.411 40.9337L139.73 39.009C140.692 38.4875 141.509 37.9086 142.18 37.276C142.85 36.6434 143.399 35.9853 143.826 35.304C144.235 34.6082 144.539 33.9029 144.735 33.1918C144.933 32.4779 145.031 31.7741 145.031 31.0776V27.6805H147.682V30.6018C147.682 31.1567 147.647 31.6833 147.575 32.1815C147.504 32.6805 147.414 33.1592 147.303 33.6182L152.818 39.0569V39.0569ZM158.001 47.1547H155.469V25.543H158.001V47.1547Z" fill="white"/>
</g>
<defs>
<clipPath id="clip0_1016_1177">
<rect width="137" height="35" fill="white" transform="translate(21 13)"/>
</clipPath>
</defs>
</svg>
